<svg width="243" height="176" viewBox="0 0 243 176" fill="none" xmlns="http://www.w3.org/2000/svg">
<g id="Client">
<g id="Ambev_logo 1">
<g id="layer1">
<g id="layer1-0">
<path id="path3013" fill-rule="evenodd" clip-rule="evenodd" d="M64.3822 87.3568C71.3981 83.985 73.5029 95.2678 68.8617 98.1858C64.679 100.805 60.3212 96.1496 61.9942 90.2358C62.5204 88.3813 63.2083 87.9274 64.3822 87.3698V87.3568ZM70.9192 82.8242C68.0319 79.8284 62.7093 79.9256 59.1878 82.4677C53.1433 86.8512 52.9274 98.6271 59.3501 103.166C63.816 106.318 67.4515 104.836 71.4182 102.709L71.4563 104.606L78.027 104.54L77.9738 81.0014L71.457 81.0529C71.2818 81.4158 71.3625 82.7259 71.268 82.9464C70.7014 84.1136 71.5871 83.226 70.9192 82.8242Z" fill="#211E1E"/>
<g id="path3029">
<path d="M71.0088 83.4557C71.0393 83.441 71.0698 83.4851 71.0988 83.4777C71.1141 83.4777 71.1217 83.4631 71.137 83.4557C71.1598 83.4484 71.175 83.4557 71.1979 83.4557C71.2513 83.4631 71.2589 83.4777 71.2284 83.5388C71.223 83.5462 71.1674 83.5462 71.1598 83.5462C71.114 83.5462 71.1447 83.5536 71.1142 83.5168C71.1096 83.5095 71.0988 83.5094 71.0988 83.5094C71.095 83.4947 71.114 83.4725 71.1216 83.4652C71.1269 83.4504 71.1278 83.4359 71.137 83.4285C71.1522 83.4138 71.2245 83.4212 71.2428 83.4285L71.2354 83.5049C71.2125 83.5049 71.2123 83.4976 71.1819 83.5049C71.1742 83.5053 71.1667 83.5123 71.1591 83.5049C71.1438 83.4976 71.1362 83.4903 71.1286 83.4829C71.1133 83.4829 71.0982 83.483 71.1058 83.4903C71.105 83.483 71.1088 83.4903 71.1058 83.4903C71.1088 83.4907 71.1163 83.4977 71.1186 83.4977C71.1254 83.4904 71.1263 83.4828 71.1339 83.4755C71.1377 83.4755 71.1414 83.4762 71.1491 83.4755C71.1948 83.4755 71.1438 83.4762 71.1872 83.4755C71.1872 83.4759 71.1895 83.4753 71.1872 83.4755C71.191 83.5682 71.1712 83.5194 71.2093 83.5415C71.2123 83.5415 71.2031 83.5415 71.2016 83.5415C71.1788 83.5415 71.1635 83.5489 71.1407 83.5415C71.1254 83.5342 71.1178 83.5193 71.1025 83.5193C71.072 83.5119 71.0417 83.5562 71.0127 83.5415V83.4643L71.0088 83.4557Z" fill="#211E1E"/>
<path d="M71.1058 83.4903C71.0982 83.483 71.1133 83.4829 71.1286 83.4829C71.1362 83.4903 71.1438 83.4976 71.1591 83.5049C71.1667 83.5123 71.1742 83.5053 71.1819 83.5049C71.2123 83.4976 71.2125 83.5049 71.2354 83.5049L71.2428 83.4285C71.2245 83.4212 71.1522 83.4138 71.137 83.4285C71.1278 83.4359 71.1269 83.4504 71.1216 83.4652C71.114 83.4725 71.095 83.4947 71.0988 83.5094C71.0988 83.5094 71.1096 83.5095 71.1142 83.5168C71.1447 83.5536 71.114 83.5462 71.1598 83.5462C71.1674 83.5462 71.223 83.5462 71.2284 83.5388C71.2589 83.4777 71.2513 83.4631 71.1979 83.4557C71.175 83.4557 71.1598 83.4484 71.137 83.4557C71.1217 83.4631 71.1141 83.4777 71.0988 83.4777C71.0698 83.4851 71.0393 83.441 71.0088 83.4557L71.0127 83.4643V83.5415C71.0417 83.5562 71.072 83.5119 71.1025 83.5193C71.1178 83.5193 71.1254 83.5342 71.1407 83.5415C71.1635 83.5489 71.1788 83.5415 71.2016 83.5415C71.2031 83.5415 71.2123 83.5415 71.2093 83.5415C71.1712 83.5194 71.191 83.5682 71.1872 83.4755M71.1058 83.4903C71.1088 83.4903 71.105 83.483 71.1058 83.4903ZM71.1058 83.4903C71.1088 83.4907 71.1163 83.4977 71.1186 83.4977C71.1254 83.4904 71.1263 83.4828 71.1339 83.4755C71.1377 83.4755 71.1414 83.4762 71.1491 83.4755C71.1948 83.4755 71.1438 83.4762 71.1872 83.4755M71.1872 83.4755C71.1895 83.4753 71.1872 83.4759 71.1872 83.4755Z" stroke="#211E1E" stroke-width="0.461701"/>
</g>
<g id="path3031">
<path d="M71.0724 83.3005C71.08 83.3005 71.0876 83.3079 71.0952 83.3152C71.099 83.316 71.1564 83.3159 71.1564 83.3159C71.1869 83.316 71.2173 83.3159 71.2455 83.3159C71.276 83.3162 71.2911 83.3085 71.2606 83.367C71.2598 83.367 71.2149 83.367 71.1997 83.367C71.1692 83.3816 71.1464 83.3304 71.1159 83.3304C71.1083 83.3311 71.1007 83.3378 71.0931 83.3378C71.0855 83.3378 71.0777 83.3451 71.0624 83.3451C71.0243 83.3159 71.0016 83.2625 71.0473 83.2295C71.0549 83.2222 71.0701 83.2224 71.0778 83.215C71.0854 83.215 71.1006 83.2076 71.1082 83.2146C71.1159 83.2219 71.1386 83.2585 71.1615 83.2438C71.1996 83.2219 71.1693 83.2 71.2227 83.2146C71.2913 83.2438 71.2073 83.3053 71.1769 83.2885C71.1692 83.2811 71.1617 83.2665 71.1541 83.2592C71.1312 83.2446 71.1007 83.2885 71.0931 83.2958C71.0398 83.2958 70.9862 83.2518 71.0319 83.1992C71.038 83.1919 71.0473 83.192 71.055 83.1847C71.0618 83.1847 71.1083 83.17 71.1159 83.17C71.1312 83.1773 71.1312 83.2065 71.1541 83.1992C71.1693 83.1992 71.1692 83.1699 71.1769 83.1626C71.1822 83.1626 71.2302 83.1626 71.2378 83.1626C71.3064 83.1626 71.3689 83.2403 71.2683 83.2666C71.253 83.2666 71.1785 83.2739 71.1731 83.2592C71.135 83.1854 71.1806 83.2373 71.1669 83.2226C71.1676 83.208 71.1615 83.1933 71.1699 83.186C71.1767 83.1787 71.2645 83.1934 71.2766 83.1934L71.2683 83.2666C71.2607 83.2666 71.1929 83.2614 71.1852 83.2541C71.1784 83.2468 71.1745 83.2373 71.1669 83.2226C71.1745 83.2373 71.1639 83.2102 71.1852 83.1883C71.1898 83.1809 71.2386 83.1956 71.2539 83.1883C71.2767 83.1886 71.2462 83.1883 71.2462 83.2249C71.2463 83.2322 71.2539 83.2394 71.2615 83.2467C71.2615 83.2471 71.2619 83.2475 71.2615 83.2467C71.2539 83.2394 71.2484 83.2394 71.2408 83.2394C71.237 83.239 71.1952 83.232 71.1952 83.232C71.18 83.2247 71.18 83.1954 71.1648 83.1954C71.1495 83.1954 71.157 83.2247 71.1417 83.2394C71.1341 83.2467 71.1189 83.2388 71.1113 83.2465C71.096 83.2465 71.1266 83.2099 71.0885 83.2099C71.093 83.2099 71.1006 83.2146 71.1082 83.2146C71.1159 83.2219 71.1386 83.2585 71.1615 83.2438C71.1691 83.2365 71.173 83.2245 71.1806 83.2099C71.1958 83.1953 71.308 83.2099 71.1959 83.2757C71.2036 83.2757 71.1952 83.2763 71.1906 83.2686C71.183 83.254 71.1829 83.2393 71.1752 83.232C71.1524 83.2101 71.1373 83.2613 71.1296 83.2686C71.1258 83.2759 71.1143 83.2757 71.1143 83.2757C71.1158 83.2772 71.1128 83.2754 71.1143 83.2757C71.1139 83.2757 71.1015 83.2385 71.1099 83.2677C71.1091 83.297 71.1145 83.3305 71.1564 83.3159C71.164 83.3159 71.1709 83.3043 71.1785 83.3043C71.1861 83.3043 71.1937 83.3043 71.2013 83.3043C71.2165 83.3043 71.2622 83.3043 71.2622 83.3043C71.2927 83.3628 71.2774 83.3556 71.2469 83.3556C71.2164 83.3556 71.186 83.3556 71.1578 83.3556C71.1563 83.3556 71.0968 83.3556 71.0968 83.3563C71.0892 83.3563 71.0817 83.3635 71.074 83.3708L71.0724 83.3005Z" fill="#211E1E"/>
<path d="M71.1564 83.3159C71.1564 83.3159 71.099 83.316 71.0952 83.3152C71.0876 83.3079 71.08 83.3005 71.0724 83.3005L71.074 83.3708C71.0817 83.3635 71.0892 83.3563 71.0968 83.3563C71.0968 83.3556 71.1563 83.3556 71.1578 83.3556C71.186 83.3556 71.2164 83.3556 71.2469 83.3556C71.2774 83.3556 71.2927 83.3628 71.2622 83.3043C71.2622 83.3043 71.2165 83.3043 71.2013 83.3043C71.1937 83.3043 71.1861 83.3043 71.1785 83.3043C71.1709 83.3043 71.164 83.3159 71.1564 83.3159ZM71.1564 83.3159C71.1869 83.316 71.2173 83.3159 71.2455 83.3159C71.276 83.3162 71.2911 83.3085 71.2606 83.367C71.2598 83.367 71.2149 83.367 71.1997 83.367C71.1692 83.3816 71.1464 83.3304 71.1159 83.3304C71.1083 83.3311 71.1007 83.3378 71.0931 83.3378C71.0855 83.3378 71.0777 83.3451 71.0624 83.3451C71.0243 83.3159 71.0016 83.2625 71.0473 83.2295C71.0549 83.2222 71.0701 83.2224 71.0778 83.215C71.0854 83.215 71.1006 83.2076 71.1082 83.2146M71.1564 83.3159C71.1145 83.3305 71.1091 83.297 71.1099 83.2677C71.1015 83.2385 71.1139 83.2757 71.1143 83.2757M71.1082 83.2146C71.1159 83.2219 71.1386 83.2585 71.1615 83.2438M71.1082 83.2146C71.1006 83.2146 71.093 83.2099 71.0885 83.2099C71.1266 83.2099 71.096 83.2465 71.1113 83.2465C71.1189 83.2388 71.1341 83.2467 71.1417 83.2394C71.157 83.2247 71.1495 83.1954 71.1648 83.1954C71.18 83.1954 71.18 83.2247 71.1952 83.232C71.1952 83.232 71.237 83.239 71.2408 83.2394C71.2484 83.2394 71.2539 83.2394 71.2615 83.2467M71.1615 83.2438C71.1996 83.2219 71.1693 83.2 71.2227 83.2146C71.2913 83.2438 71.2073 83.3053 71.1769 83.2885C71.1692 83.2811 71.1617 83.2665 71.1541 83.2592C71.1312 83.2446 71.1007 83.2885 71.0931 83.2958C71.0398 83.2958 70.9862 83.2518 71.0319 83.1992C71.038 83.1919 71.0473 83.192 71.055 83.1847C71.0618 83.1847 71.1083 83.17 71.1159 83.17C71.1312 83.1773 71.1312 83.2065 71.1541 83.1992C71.1693 83.1992 71.1692 83.1699 71.1769 83.1626C71.1822 83.1626 71.2302 83.1626 71.2378 83.1626C71.3064 83.1626 71.3689 83.2403 71.2683 83.2666M71.1615 83.2438C71.1691 83.2365 71.173 83.2245 71.1806 83.2099C71.1958 83.1953 71.308 83.2099 71.1959 83.2757C71.2036 83.2757 71.1952 83.2763 71.1906 83.2686C71.183 83.254 71.1829 83.2393 71.1752 83.232C71.1524 83.2101 71.1373 83.2613 71.1296 83.2686C71.1258 83.2759 71.1143 83.2757 71.1143 83.2757M71.2683 83.2666C71.253 83.2666 71.1785 83.2739 71.1731 83.2592C71.135 83.1854 71.1806 83.2373 71.1669 83.2226M71.2683 83.2666L71.2766 83.1934C71.2645 83.1934 71.1767 83.1787 71.1699 83.186C71.1615 83.1933 71.1676 83.208 71.1669 83.2226M71.2683 83.2666C71.2607 83.2666 71.1929 83.2614 71.1852 83.2541C71.1784 83.2468 71.1745 83.2373 71.1669 83.2226M71.1669 83.2226C71.1745 83.2373 71.1639 83.2102 71.1852 83.1883C71.1898 83.1809 71.2386 83.1956 71.2539 83.1883C71.2767 83.1886 71.2462 83.1883 71.2462 83.2249C71.2463 83.2322 71.2539 83.2394 71.2615 83.2467M71.2615 83.2467C71.2619 83.2475 71.2615 83.2471 71.2615 83.2467ZM71.1143 83.2757C71.1128 83.2754 71.1158 83.2772 71.1143 83.2757Z" stroke="#211E1E" stroke-width="0.461701"/>
</g>
<path id="path3009" fill-rule="evenodd" clip-rule="evenodd" d="M87.8864 104.553C88.3723 100.481 85.7141 85.0094 92.1769 86.7213C97.2365 88.07 91.9477 100.3 96.2245 104.605L103.079 104.476C100.798 100.183 101.365 100.676 101.352 95.1638C101.352 91.9476 100.731 86.6694 104.792 86.6694C111.255 86.6694 104.671 100.338 110.027 104.592L116.922 104.526C112.469 99.987 116.206 92.2837 114.237 85.6566C113.495 83.1666 111.268 80.949 108.017 80.6377C103.537 80.2095 102.471 81.6363 100.029 83.5816C98.4372 82.4144 97.6951 80.8194 94.2816 80.6248C91.1649 80.4429 89.0423 81.397 87.5987 82.9792L87.5454 81.3679C87.515 81.1992 87.467 81.1318 87.3862 81.0152L81.0596 81.1047L81.2218 104.617L87.8868 104.566L87.8864 104.553Z" fill="#211E1E"/>
<path id="path3011" fill-rule="evenodd" clip-rule="evenodd" d="M127.728 87.4209C134.825 83.6989 136.7 96.0324 131.883 98.3667C128.308 100.092 125.866 97.355 125.151 94.878C124.422 92.375 124.868 88.9253 127.728 87.4209ZM124.916 103.019C128.084 105.449 134.177 105.538 137.334 102.698C143.932 96.7328 142.65 86.0593 136.498 82.0908C131.802 79.0691 128.47 81.0016 125.151 82.921L125.097 72.6497L118.189 72.7662L118.364 104.618L124.743 104.654C124.919 103.01 124.745 104.669 124.743 104.676L124.916 103.019Z" fill="#211E1E"/>
<path id="path3015" fill-rule="evenodd" clip-rule="evenodd" d="M150.395 90.3395C151.461 84.6592 157.776 84.763 158.585 90.3542L150.395 90.3395ZM164.373 97.0185C159.853 98.5877 152.163 101.622 150.382 95.2547L165.48 94.9826C165.777 88.2778 163.685 83.1552 158.76 81.2358C145.767 76.178 137.78 94.451 147.413 102.219C151.461 105.487 159.287 106.11 163.523 102.66C164.198 101.324 164.333 98.9897 164.36 97.0185H164.373Z" fill="#211E1E"/>
<path id="path3017" fill-rule="evenodd" clip-rule="evenodd" d="M188.43 81.0277L181.145 81.1575L176.463 96.4218L171.929 81.0148L164.725 81.0295C164.954 83.0397 171.822 102.869 172.847 104.594L180.429 104.63L188.444 81.0403L188.43 81.0277Z" fill="#211E1E"/>
</g>
</g>
</g>
</g>
</svg>
