<svg width="243" height="176" viewBox="0 0 243 176" fill="none" xmlns="http://www.w3.org/2000/svg">
<g id="Client">
<g id="Logo_Bayer 1">
<g id="g43">
<g id="g975">
<path id="path6" d="M172.612 84.7728C170.994 58.1487 148.742 36.9032 121.5 36.9032C94.258 36.9032 72.006 58.1487 70.3877 84.7728C70.3877 85.8485 70.5226 86.9243 70.6574 88C71.7363 96.8747 75.1078 105.077 80.2325 111.935C89.5379 124.575 104.507 132.777 121.5 132.777C97.7644 132.777 78.3445 114.355 76.7261 91.2271C76.5913 90.1514 76.5913 89.0757 76.5913 88C76.5913 86.9243 76.5913 85.8485 76.7261 84.7728C78.3445 61.6448 97.7644 43.2231 121.5 43.2231C138.492 43.2231 153.462 51.4254 162.767 64.0652C167.892 70.9229 171.263 79.1253 172.342 88C172.477 89.0757 172.612 90.1514 172.612 91.0927C172.612 90.017 172.747 88.9412 172.747 87.8655C172.747 86.9243 172.747 85.8485 172.612 84.7728Z" fill="#211E1E"/>
<path id="path8" d="M70.3878 91.2272C72.0061 117.851 94.2581 139.097 121.5 139.097C148.742 139.097 170.994 117.851 172.612 91.2272C172.612 90.1514 172.477 89.0757 172.342 88C171.264 79.1253 167.892 70.9229 162.767 64.0652C153.462 51.4255 138.492 43.2231 121.5 43.2231C145.235 43.2231 164.655 61.6448 166.274 84.7728C166.409 85.8486 166.409 86.9243 166.409 88C166.409 89.0757 166.409 90.1514 166.274 91.2272C164.655 114.49 145.235 132.777 121.5 132.777C104.508 132.777 89.538 124.575 80.2326 111.935C75.1079 105.077 71.7364 96.8747 70.6575 88C70.5227 86.9243 70.3878 85.8486 70.3878 84.9073C70.3878 85.983 70.2529 87.0587 70.2529 88.1345C70.2529 89.0757 70.2529 90.1514 70.3878 91.2272Z" fill="#211E1E"/>
</g>
<g id="g28">
<path id="path858" d="M115.161 46.7192V60.8381H125.006C127.433 60.8381 129.322 58.9555 129.322 56.5352C129.322 55.325 128.782 54.2492 127.973 53.4424C128.512 52.7701 128.917 51.8288 129.052 50.8876C129.052 48.6016 127.164 46.7192 124.871 46.7192H115.161ZM118.398 49.6774H124.332C125.006 49.6774 125.545 50.2152 125.545 50.8876C125.545 51.5599 125.006 52.0977 124.332 52.0977H118.398V49.6774ZM118.398 55.0559H124.466C125.276 55.0559 125.815 55.5938 125.815 56.4006C125.815 57.2074 125.276 57.7453 124.466 57.7453H118.398V55.0559Z" fill="#211E1E"/>
<path id="path852" d="M119.881 63.5272L112.868 77.6461H116.51L117.588 75.2258H125.545L126.624 77.6461H130.265L123.118 63.5272H119.881ZM121.499 67.1579L123.927 72.2676H119.072L121.499 67.1579Z" fill="#211E1E"/>
<path id="path848" d="M126.354 80.7388H130.4L123.253 89.8825V94.8577H119.881V89.8825L112.733 80.7388H116.779L121.634 87.1932L126.354 80.7388Z" fill="#211E1E"/>
<path id="path844" d="M149.551 80.7388V94.8577H152.922V89.4792H155.485L159.531 94.8577H163.576L159.396 89.3446C161.149 88.8068 162.497 87.1932 162.497 85.1763C162.497 82.7559 160.609 80.7388 158.182 80.7388H149.551ZM153.057 83.6971H157.912C158.587 83.6971 159.261 84.3694 159.261 85.0417C159.261 85.7141 158.721 86.3864 157.912 86.3864H153.057V83.6971Z" fill="#211E1E"/>
<path id="path858-0" d="M80.6367 80.7388V94.8577H90.4816C92.9091 94.8577 94.7971 92.9752 94.7971 90.5548C94.7971 89.3446 94.2577 88.2688 93.4485 87.462C93.9879 86.7897 94.3924 85.8485 94.5273 84.9072C94.5273 82.6213 92.6393 80.7388 90.3466 80.7388H80.6367ZM83.8733 83.6971H89.8071C90.4814 83.6971 91.0211 84.2349 91.0211 84.9072C91.0211 85.5795 90.4814 86.1174 89.8071 86.1174H83.8733V83.6971ZM83.8733 89.0756H89.9421C90.7512 89.0756 91.2907 89.6135 91.2907 90.4203C91.2907 91.2271 90.7512 91.765 89.9421 91.765H83.8733V89.0756Z" fill="#211E1E"/>
<path id="path852-8" d="M103.833 80.7388L96.8203 94.8577H100.462L101.54 92.4374H109.497L110.576 94.8577H114.217L107.07 80.7388H103.833ZM105.451 84.3695L107.879 89.4792H103.024L105.451 84.3695Z" fill="#211E1E"/>
<path id="path830-7" d="M145.1 80.7388V83.7737H135.66V86.1489H144.83V89.1838H135.66V91.8228H145.1V94.8577H132.288V80.7388H145.1Z" fill="#211E1E"/>
<path id="path844-7" d="M115.026 115.431V129.55H118.398V124.171H120.96L125.006 129.55H129.052L124.871 124.037C126.624 123.499 127.973 121.885 127.973 119.868C127.973 117.448 126.085 115.431 123.657 115.431H115.026ZM118.533 118.389H123.388C124.062 118.389 124.736 119.062 124.736 119.734C124.736 120.406 124.197 121.079 123.388 121.079H118.533V118.389Z" fill="#211E1E"/>
<path id="path830-7-6" d="M127.973 97.9189V100.954H118.533V103.329H127.703V106.364H118.533V109.003H127.973V112.038H115.161V97.9189H127.973Z" fill="#211E1E"/>
</g>
</g>
</g>
</g>
</svg>
