<svg width="151" height="24" viewBox="0 0 151 24" fill="none" xmlns="http://www.w3.org/2000/svg">
<path fill-rule="evenodd" clip-rule="evenodd" d="M42.284 10.2882L40.4036 16.1236H44.1555L42.284 10.2882ZM11.0225 0.716526C14.5571 0.66025 18.6366 1.67871 18.939 6.04701C19.0956 8.30904 17.8028 10.7177 15.5709 11.3501C19.5863 12.4477 20.1668 18.1882 18.0789 20.2851C15.226 23.15 10.7189 23.0235 7.15769 23.1415H0.516602L0.578576 0.716829L11.0225 0.716526ZM6.91878 19.036H9.5642C10.7896 19.036 11.6764 18.803 12.236 18.3437C12.7901 17.884 13.0443 17.1743 12.9928 16.2027C12.9464 15.33 12.665 14.6726 12.1438 14.2361C11.6225 13.7995 10.8603 13.5784 9.86389 13.5784H6.7604L6.76429 15.4866C6.76549 15.7254 6.76878 16.0047 6.78016 16.3247C6.79154 16.6447 6.81848 17.1509 6.85501 17.8433L6.91878 19.036ZM6.71699 9.66485H8.6301C10.2456 9.66485 11.4016 9.46043 12.0985 9.05797C12.7886 8.65522 13.1084 7.99997 13.0509 7.09285C12.9958 6.2274 12.688 5.62052 12.1273 5.27191C11.5668 4.92968 10.5923 4.75508 9.21002 4.75508H6.73735C6.73106 4.87523 6.72956 5.18795 6.72687 5.70448C6.72417 6.22132 6.72507 6.67214 6.72118 7.06243L6.71699 9.66485ZM111.769 4.7566C115.52 4.5251 117.755 6.57388 117.884 9.14741C118.01 11.6358 117.024 13.3673 114.126 14.5068L118.761 23.1448H113.451L108.296 12.7555L110.446 12.7452C111.655 12.7391 112.6 11.6832 112.641 10.4107C112.701 8.5597 111.507 7.88011 109.839 7.88163L108.013 7.88316L108.042 23.1451H103.071L103.079 4.7569L111.769 4.7566ZM65.0455 4.86489H70.028V23.1315H65.0455V4.86489ZM71.5091 4.86489H76.4916V20.0527H82.6524V23.081L71.5091 23.1315V4.86489ZM118.996 23.1923L118.981 4.48768H131.784L131.796 7.65014L124.083 7.61303L124.076 11.7812L131.065 11.7444L131.014 14.9704L124.069 14.9695L124.028 19.8546L131.757 19.8814L131.77 23.1923H118.996ZM132.497 4.46365H137.546L140.802 16.0749L144.987 4.46365H150.037L143.459 23.1634H137.812L132.497 4.46365ZM90.0707 10.6711H91.9057C93.3512 10.6711 94.3634 10.4004 94.9487 9.84981C95.5316 9.30164 95.8241 8.59589 95.8241 7.74353C95.8241 6.90972 95.5669 6.20185 95.0622 5.62509C94.5565 5.04741 93.605 4.75416 92.2051 4.75416H90.0707V10.6711ZM83.9437 0.860108H93.888C96.1241 0.860108 98.821 1.62 100.081 2.66644C101.696 4.00979 102.051 5.60136 102.133 7.16494C102.38 11.8359 98.6947 14.237 93.7862 14.237H90.0707V23.1384H83.9437V0.860108ZM50.617 19.9361L56.4476 19.9355C57.4293 19.9355 58.8284 19.2061 58.2769 17.6309C58.1161 17.1722 57.7176 16.6697 56.9069 16.2234C55.8644 15.6494 54.2708 15.1237 53.0166 14.4326C51.8484 13.7889 50.7011 12.6892 50.2371 11.8088C49.3706 10.1647 49.4697 7.71859 50.9861 6.2706C51.9589 5.34218 53.6747 4.78185 55.4605 4.88558L63.2696 4.90109L63.2513 7.99662L56.7042 8.02552C55.3851 8.031 54.4696 9.42302 55.2117 10.304C56.6608 12.0248 60.0071 12.7342 61.4475 13.6918C64.0375 15.413 64.5827 18.9569 62.7312 21.2004C61.4412 22.7631 59.1766 23.077 56.7815 23.0861L49.0209 23.1159L49.0197 23.1056H46.3064L45.2049 19.0634H39.6599L37.9587 23.1056L30.4623 23.0767L25.3741 12.7555L27.525 12.7452C28.7336 12.7391 29.6785 11.8858 29.7195 10.6133C29.7797 8.7626 28.5857 7.88011 26.9178 7.88163L25.0915 7.88316L25.1206 23.1451H20.1492L20.1572 4.7569H28.848C32.599 4.5254 34.8334 6.57388 34.9627 9.14771C35.0882 11.6361 34.0355 13.5023 31.138 14.6422L34.0259 19.8647L39.5356 4.86124L45.698 4.87493L50.617 19.9361Z" fill="#211E1E"/>
</svg>
