<svg width="242" height="176" viewBox="0 0 242 176" fill="none" xmlns="http://www.w3.org/2000/svg">
<g id="Client">
<g id="comgas-logo 1">
<g id="Group">
<path id="Vector" fill-rule="evenodd" clip-rule="evenodd" d="M141.79 74.1142V75.251C140.247 74.3056 138.462 73.8048 136.641 73.8065C131.273 73.8065 126.922 78.0549 126.922 83.2918C126.922 88.5302 131.273 92.7779 136.641 92.7779C138.532 92.7779 140.297 92.249 141.79 91.334V93.774C141.79 95.107 141.247 96.3854 140.282 97.3279C139.316 98.2704 138.006 98.8 136.641 98.8002C135.548 98.8 134.484 98.4606 133.601 97.8311C132.719 97.2015 132.065 96.3146 131.734 95.2983L127.501 97.0097C128.856 100.657 132.435 103.26 136.641 103.26C142.007 103.26 146.356 99.0116 146.356 93.774H146.367V74.1142H141.79ZM136.641 88.3194C135.275 88.3191 133.965 87.7892 133 86.8464C132.034 85.9035 131.492 84.6249 131.492 83.2918C131.492 82.2976 131.794 81.3257 132.36 80.4991C132.926 79.6725 133.731 79.0283 134.672 78.648C135.613 78.2676 136.649 78.1683 137.648 78.3624C138.647 78.5566 139.564 79.0355 140.284 79.7387C141.004 80.4419 141.495 81.3378 141.693 82.3129C141.892 83.2881 141.789 84.2989 141.399 85.2174C141.009 86.1358 140.349 86.9208 139.502 87.473C138.655 88.0251 137.659 88.3197 136.641 88.3194ZM84.5753 73.8065C79.2082 73.8065 74.8572 78.0556 74.8572 83.2925C74.8572 88.5302 79.2082 92.7786 84.5753 92.7786C89.9418 92.7786 94.2906 88.5302 94.2906 83.2925C94.2906 78.0549 89.9418 73.8065 84.5753 73.8065ZM84.5753 88.3194C83.8991 88.3193 83.2296 88.1892 82.6049 87.9366C81.9802 87.6839 81.4126 87.3136 80.9346 86.8468C80.4565 86.38 80.0773 85.8259 79.8186 85.216C79.5599 84.6062 79.4268 83.9526 79.4269 83.2925C79.4269 82.2983 79.729 81.3263 80.2949 80.4996C80.8609 79.6729 81.6652 79.0286 82.6063 78.6482C83.5474 78.2677 84.583 78.1683 85.582 78.3623C86.581 78.5564 87.4986 79.0353 88.2188 79.7385C88.9389 80.4416 89.4293 81.3375 89.6278 82.3127C89.8264 83.2879 89.7242 84.2987 89.3342 85.2172C88.9442 86.1357 88.2839 86.9207 87.4368 87.4729C86.5898 88.0251 85.5939 88.3197 84.5753 88.3194ZM66.6588 78.2656C67.5168 78.2655 68.3612 78.475 69.115 78.8749C69.8689 79.2748 70.5083 79.8524 70.975 80.5552L74.243 77.3659C73.334 76.2546 72.1801 75.3575 70.8671 74.7413C69.5541 74.125 68.1157 73.8055 66.6588 73.8065C61.2924 73.8065 56.9414 78.0556 56.9414 83.2925C56.9414 88.5302 61.2924 92.7779 66.6588 92.7779C69.7273 92.7779 72.4634 91.3881 74.243 89.2178L70.975 86.0292C70.5086 86.7323 69.8693 87.3102 69.1153 87.7102C68.3614 88.1103 67.5169 88.3197 66.6588 88.3194C65.293 88.3194 63.9831 87.7898 63.0173 86.8471C62.0515 85.9044 61.509 84.6258 61.509 83.2925C61.509 81.9593 62.0515 80.6807 63.0173 79.738C63.9831 78.7953 65.293 78.2656 66.6588 78.2656Z" fill="#211E1E"/>
<path id="Vector_2" fill-rule="evenodd" clip-rule="evenodd" d="M158.001 73.8065C152.635 73.8065 148.283 78.0549 148.283 83.2925C148.283 88.5302 152.635 92.7786 158.001 92.7786C163.368 92.7786 167.717 88.5302 167.717 83.2925V73.8065H158.002H158.001ZM163.152 83.2925C163.152 84.6256 162.609 85.904 161.644 86.8466C160.678 87.7892 159.368 88.3187 158.003 88.3187C156.637 88.3187 155.327 87.7892 154.362 86.8466C153.396 85.904 152.854 84.6256 152.854 83.2925C152.853 81.9594 153.396 80.6809 154.361 79.738C155.327 78.7952 156.636 78.2653 158.002 78.2649H163.152V83.2925Z" fill="#211E1E"/>
<path id="Vector_3" fill-rule="evenodd" clip-rule="evenodd" d="M122.891 75.7314C121.57 74.4428 119.912 73.8065 117.752 73.8065C115.622 73.8065 112.993 74.901 111.581 77.334C110.605 75.3481 108.541 73.8065 106.112 73.8065C104.234 73.8065 102.466 74.6057 101.011 76.2035V74.1142H96.2061V92.3676H101.011V82.3103C101.046 80.8741 101.489 80.0339 102.224 79.2915C102.962 78.5498 103.907 78.3024 104.909 78.3024C106.94 78.3024 108.099 79.9001 108.099 82.4704V92.3676H112.904V82.3103C112.938 80.8741 113.382 80.0339 114.117 79.2915C114.854 78.5498 115.799 78.3024 116.803 78.3024C118.832 78.3024 119.991 79.9001 119.991 82.4704V92.3676H125.007V81.3392C125.007 78.8736 124.211 77.0214 122.891 75.7314ZM182.058 82.9238C181.252 82.458 179.283 81.7419 177.637 81.1305C175.012 80.1559 174.422 79.5071 174.505 78.8354C174.586 78.1984 175.663 77.7194 177.339 77.7977C179.015 77.8754 180.417 78.1485 182.479 78.9879L184.073 75.3522C181.625 74.264 179.381 73.8065 177.661 73.8065C174.871 73.8065 173.263 74.2376 171.769 75.3106C170.276 76.383 169.632 77.7111 169.632 79.4329C169.632 81.1326 170.812 82.6167 172.392 83.5504C173.165 84.0079 174.305 84.6297 176.133 85.2459C177.284 85.6341 177.99 85.8316 178.587 86.1373C179.219 86.4617 179.411 86.834 179.411 87.2672C179.411 87.8065 178.741 88.4816 177.105 88.4816C175.096 88.4816 172.681 87.7566 170.534 86.5394L168.462 90.3601C169.903 91.2398 170.723 91.587 172.293 92.0778C173.862 92.5665 175.377 92.8126 176.839 92.8126C179.031 92.8126 180.846 92.2483 182.316 91.1698C183.584 90.2395 184.404 88.7845 184.404 86.967C184.404 85.4885 183.866 83.9656 182.058 82.9238Z" fill="#211E1E"/>
</g>
</g>
</g>
</svg>
