<svg width="242" height="176" viewBox="0 0 242 176" fill="none" xmlns="http://www.w3.org/2000/svg">
<g id="Client">
<g id="cvc-logo 1">
<path id="path2-1" d="M150.318 110.294C149.193 109.766 147.736 109.337 146.319 109.122C144.715 108.881 143.092 109.441 141.981 110.62C131.754 121.477 119.458 127.456 107.341 127.456C96.4428 127.456 87.1409 120.852 83.0621 110.183C82.7361 109.33 81.8578 108.933 80.9196 109.148C80.547 109.232 80.1478 109.48 80.2143 109.819C83.0089 123.112 93.2556 132.041 106.949 133.135C123.69 134.471 140.71 126.609 150.83 112.241C151.316 111.551 151.05 110.639 150.318 110.294Z" fill="#211E1E"/>
<path id="path4-2" d="M157.471 73.3518C161.922 73.3518 165.721 74.5436 168.749 77.4682C169.068 77.7742 169.061 78.2757 168.722 78.5688L163.931 82.7631C163.785 82.8936 163.605 82.952 163.426 82.952C163.239 82.952 163.046 82.8869 162.893 82.7503C161.45 81.4801 159.786 80.9461 157.797 80.9461C153.438 80.9461 150.551 84.1246 150.551 88.1887C150.551 92.6957 153.438 96.4992 158.309 96.4992C160.398 96.4992 162.361 95.6851 163.878 94.3044C164.031 94.1676 164.224 94.0961 164.41 94.0961C164.583 94.0961 164.763 94.1545 164.903 94.2719L169.913 98.4403C170.272 98.7463 170.279 99.2544 169.946 99.567C166.706 102.57 162.501 104.041 157.883 104.041C148.674 104.041 141.389 97.854 141.389 88.7161C141.395 79.9951 148.661 73.3518 157.471 73.3518Z" fill="#211E1E"/>
<path id="path6-8" d="M137.683 73.8338C138.248 73.8338 138.621 74.407 138.381 74.9085L126.484 99.8471C125.386 102.146 122.306 103.611 120.443 103.611C117.848 103.611 115.486 102.133 114.395 99.8274L102.578 74.9085C102.338 74.407 102.731 73.8402 103.276 73.8402H111.141C111.44 73.8402 111.733 74.0226 111.853 74.3027L119.937 93.1059C120.037 93.3404 120.263 93.4578 120.483 93.4578C120.702 93.4578 120.929 93.3404 121.028 93.0995L129.073 74.2963C129.192 74.0162 129.492 73.8338 129.785 73.8338H137.683Z" fill="#211E1E"/>
<path id="path8-9" d="M86.4687 73.3518C90.9201 73.3518 94.7194 74.5436 97.7468 77.4682C98.0661 77.7742 98.0595 78.2757 97.7201 78.5688L92.9294 82.7631C92.783 82.8936 92.6034 82.952 92.4237 82.952C92.2374 82.952 92.0445 82.8869 91.8915 82.7503C90.4476 81.4801 88.7842 80.9461 86.7948 80.9461C82.4366 80.9461 79.5489 84.1246 79.5489 88.1887C79.5489 92.6957 82.4366 96.4992 87.3071 96.4992C89.3964 96.4992 91.3592 95.6851 92.8762 94.3044C93.0292 94.1676 93.2221 94.0961 93.4084 94.0961C93.5816 94.0961 93.7613 94.1545 93.901 94.2719L98.9111 98.4403C99.2704 98.7463 99.277 99.2544 98.9444 99.567C95.7041 102.57 91.4989 104.041 86.8813 104.041C77.6725 104.041 70.3867 97.854 70.3867 88.7161C70.3934 79.9951 77.6526 73.3518 86.4687 73.3518Z" fill="#211E1E"/>
<path id="path10-7" d="M88.2652 67.1253C89.3896 67.653 90.8468 68.0827 92.264 68.2977C93.8677 68.5386 95.4911 67.9784 96.6023 66.7997C106.829 55.9424 119.125 49.9633 131.241 49.9633C142.14 49.9633 151.442 56.5676 155.521 67.236C155.847 68.0894 156.725 68.4865 157.663 68.2716C158.036 68.187 158.435 67.9394 158.369 67.6007C155.574 54.3076 145.327 45.3781 131.634 44.2839C114.893 42.9488 97.8731 50.8101 87.7528 65.1778C87.2671 65.8682 87.5333 66.7802 88.2652 67.1253Z" fill="#211E1E"/>
</g>
</g>
</svg>
