<svg width="242" height="176" viewBox="0 0 242 176" fill="none" xmlns="http://www.w3.org/2000/svg">
<g id="Client">
<g id="google-ar21 1">
<path id="Vector" d="M85.6099 83.46H69.5695V88.2056H80.9464C80.3827 94.8482 74.8313 97.6994 69.5888 97.6994C67.9279 97.7067 66.2823 97.384 64.7479 96.7502C63.2135 96.1164 61.8212 95.1841 60.6521 94.0079C59.483 92.8317 58.5607 91.435 57.9389 89.8995C57.3171 88.3639 57.0084 86.7203 57.0307 85.0644C57.0307 77.8802 62.6089 72.349 69.6041 72.349C75.0004 72.349 78.1803 75.7789 78.1803 75.7789L81.5114 72.3375C81.5114 72.3375 77.2323 67.5894 69.4299 67.5894C59.4944 67.5894 51.8086 75.9501 51.8086 84.9801C51.8086 93.8288 59.0383 102.458 69.681 102.458C79.0426 102.458 85.8956 96.063 85.8956 86.6076C85.8956 84.6122 85.6047 83.46 85.6047 83.46H85.6099Z" fill="#211E1E"/>
<path id="Vector_2" d="M98.7511 80.0225C92.1685 80.0225 87.4512 85.1539 87.4512 91.1361C87.4512 97.2089 92.025 102.435 98.828 102.435C104.985 102.435 110.029 97.7429 110.029 91.2664C110.029 83.8573 104.162 80.0212 98.7511 80.0212V80.0225ZM98.8152 84.4245C102.051 84.4245 105.119 87.0343 105.119 91.2383C105.119 95.3516 102.064 98.0367 98.7998 98.0367C95.2125 98.0367 92.394 95.1727 92.394 91.205C92.394 87.3217 95.1869 84.4245 98.8255 84.4245H98.8152Z" fill="#211E1E"/>
<path id="Vector_3" d="M123.325 80.0225C116.743 80.0225 112.025 85.1539 112.025 91.1361C112.025 97.2089 116.599 102.435 123.402 102.435C129.56 102.435 134.604 97.7429 134.604 91.2664C134.604 83.8573 128.736 80.0212 123.325 80.0212V80.0225ZM123.389 84.4245C126.626 84.4245 129.693 87.0343 129.693 91.2383C129.693 95.3516 126.638 98.0367 123.374 98.0367C119.787 98.0367 116.968 95.1727 116.968 91.205C116.968 87.3217 119.761 84.4245 123.4 84.4245H123.389Z" fill="#211E1E"/>
<path id="Vector_4" d="M147.428 80.0353C141.386 80.0353 136.638 85.311 136.638 91.2331C136.638 97.9779 142.143 102.451 147.323 102.451C150.526 102.451 152.23 101.183 153.472 99.728V101.938C153.472 105.805 151.118 108.121 147.564 108.121C144.13 108.121 142.408 105.575 141.798 104.131L137.478 105.92C139.01 109.151 142.096 112.52 147.599 112.52C153.621 112.52 158.185 108.748 158.185 100.835V80.7085H153.49V82.6067C152.043 81.0483 150.059 80.0353 147.43 80.0353H147.428ZM147.863 84.4296C150.825 84.4296 153.867 86.9512 153.867 91.2574C153.867 95.6351 150.831 98.0469 147.798 98.0469C144.577 98.0469 141.58 95.441 141.58 91.2983C141.58 86.9959 144.694 84.4296 147.863 84.4296Z" fill="#211E1E"/>
<path id="Vector_5" d="M179.166 80.0084C173.467 80.0084 168.682 84.5305 168.682 91.1986C168.682 98.2576 174.015 102.444 179.7 102.444C184.455 102.444 187.387 99.8506 189.116 97.5257L185.231 94.9478C184.222 96.5063 182.536 98.0328 179.724 98.0328C176.565 98.0328 175.112 96.3083 174.211 94.6349L189.282 88.4011L188.513 86.5744C187.058 82.9976 183.66 80.0084 179.166 80.0084ZM179.362 84.3184C181.415 84.3184 182.892 85.4068 183.52 86.7123L173.455 90.9061C173.02 87.6589 176.107 84.3184 179.349 84.3184H179.362Z" fill="#211E1E"/>
<path id="Vector_6" d="M161.485 101.779H166.436V68.7493H161.485V101.779Z" fill="#211E1E"/>
</g>
</g>
</svg>
