<svg width="242" height="176" viewBox="0 0 242 176" fill="none" xmlns="http://www.w3.org/2000/svg">
<g id="Client">
<g id="Honda_Logo 1">
<path id="Vector" d="M85.951 115.232C85.951 115.232 85.3274 113.216 84.2318 112.124C83.1361 111.032 74.6915 102.614 73.4443 101.37C72.197 100.127 69.7529 97.7074 69.7529 94.1789C69.7529 90.6504 72.7363 88.13 76.3434 86.685C79.9504 85.24 138.607 61.5151 142.956 59.7004C147.305 57.8858 153.558 55.0966 156.39 53.7524C159.222 52.4082 167.245 48.6235 167.51 48.4807C167.776 48.3379 167.919 48.2581 168.045 48.2581C168.172 48.2581 168.29 48.3673 168.29 48.5101C168.29 48.6529 168.197 48.8503 168.167 48.947C168.138 49.0436 165.711 56.2391 163.789 58.6923C161.868 61.1455 160.924 62.1872 151.721 65.4132C142.518 68.6393 81.0628 90.1463 79.5122 90.7512C77.9615 91.3561 74.4555 92.4314 74.4555 95.019C74.4555 97.1025 76.5456 98.7155 77.1524 99.2532C77.7592 99.7908 94.2775 115.232 94.2775 115.232L85.951 115.232Z" fill="#211E1E"/>
<path id="Vector_2" d="M78.7033 98.539C78.7033 98.539 77.2031 97.1528 77.0009 96.9512C76.7986 96.7496 76.3604 95.9935 76.3604 95.4558C76.3604 94.9181 76.4615 93.6243 78.737 92.9186C81.0124 92.2129 134.124 74.7889 137.023 73.8816C139.922 72.9742 157.043 67.3119 160.09 65.9509C160.734 65.6736 160.848 65.6064 160.949 65.6064C161.05 65.6064 161.181 65.6695 161.181 65.8249C161.181 65.9803 161.109 66.0979 161.055 66.1861C161 66.2743 158.067 72.277 156.348 74.1672C154.628 76.0575 153.086 77.3933 149.951 78.1746C146.816 78.9559 97.9437 92.0617 97.6277 92.1499C97.3117 92.2381 96.945 92.528 96.945 92.9186C96.945 93.5613 97.476 93.6117 97.476 93.6117L78.7033 98.539Z" fill="#211E1E"/>
<path id="Vector_3" d="M79.79 99.4967L84.1135 103.504L106.54 99.2951C106.54 99.2951 105.958 98.9296 105.958 98.5075C105.958 98.0853 106.299 97.8081 106.71 97.7262C107.121 97.6443 139.635 91.3561 141.658 91.0032C143.68 90.6504 146.344 90.0623 148.518 87.4411C150.692 84.8199 152.801 81.3187 152.871 81.2116C152.94 81.1045 152.966 81.0415 152.966 80.9785C152.966 80.9155 152.928 80.7579 152.763 80.7579C152.599 80.7579 152.511 80.7957 152.346 80.8587C152.182 80.9218 79.79 99.4967 79.79 99.4967Z" fill="#211E1E"/>
<path id="Vector_4" d="M143.377 93.5991C143.285 93.6199 85.1416 104.479 85.1416 104.479L90.1814 109.124L117.074 105.747C117.074 105.747 116.569 105.562 116.569 105.041C116.569 104.521 117.066 104.327 117.352 104.277C117.639 104.227 131.191 102.244 132.784 102.009C134.376 101.773 136.997 101.227 139.205 98.9085C141.414 96.5898 143.588 94.0191 143.672 93.9182C143.756 93.8174 143.769 93.7545 143.769 93.7041C143.769 93.6537 143.706 93.5487 143.579 93.5487C143.546 93.5487 143.47 93.5781 143.377 93.5991Z" fill="#211E1E"/>
<path id="Vector_5" d="M91.3789 110.208L96.7727 115.249H132.371L119.055 106.982L91.3789 110.208Z" fill="#211E1E"/>
<path id="Vector_6" d="M89.5354 119.08C89.6871 119.063 90.9681 118.878 90.9681 118.878V117.383H81.872V118.878C81.872 118.878 83.1529 119.063 83.3046 119.08C83.4563 119.097 84.1305 119.248 84.1305 120.004V121.903H77.113V120.004C77.113 119.248 77.7872 119.097 77.9389 119.08C78.0906 119.063 79.3716 118.878 79.3716 118.878V117.383H70.2754V118.878C70.2754 118.878 71.5564 119.063 71.7081 119.08C71.8598 119.097 72.534 119.248 72.534 120.004V126.116C72.534 126.872 71.8598 127.023 71.7081 127.04C71.5564 127.057 70.2754 127.199 70.2754 127.199V128.694H79.3716V127.199C79.3716 127.199 78.0906 127.057 77.9389 127.04C77.7872 127.023 77.113 126.872 77.113 126.116V124.205H84.1305V126.116C84.1305 126.872 83.4563 127.023 83.3046 127.04C83.1529 127.057 81.872 127.199 81.872 127.199V128.694H90.9681V127.199C90.9681 127.199 89.6871 127.057 89.5354 127.04C89.3837 127.023 88.7095 126.872 88.7095 126.116V120.004C88.7095 119.248 89.3837 119.097 89.5354 119.08Z" fill="#211E1E"/>
<path id="Vector_7" d="M100.734 117.013C94.868 117.013 91.4463 119.135 91.4463 123.068C91.4463 127.001 94.868 129.123 100.734 129.123C106.599 129.123 110.021 127.001 110.021 123.068C110.021 119.135 106.599 117.013 100.734 117.013ZM100.734 127.034C99.5875 127.034 96.7052 127.067 96.7052 123.068C96.7052 119.069 99.5875 119.103 100.734 119.103C101.88 119.103 104.762 119.069 104.762 123.068C104.762 127.067 101.88 127.034 100.734 127.034Z" fill="#211E1E"/>
<path id="Vector_8" d="M123.311 117.366H130.618V118.878C130.618 118.878 129.346 119.004 129.099 119.036C128.853 119.067 128.309 119.313 128.309 120.006C128.309 120.699 128.309 128.267 128.309 128.708C128.309 128.708 122.932 128.708 122.662 128.708C122.393 128.708 122.001 128.632 121.773 128.355C121.546 128.077 115.592 120.315 115.592 120.315C115.592 121.008 115.592 125.771 115.592 126.212C115.592 126.654 116.028 126.95 116.35 126.994C116.673 127.038 117.892 127.191 117.892 127.191V128.708L110.577 128.708V127.195C110.577 127.195 111.85 127.069 112.096 127.038C112.343 127.006 112.886 126.761 112.886 126.068C112.886 125.374 112.886 120.315 112.886 119.874C112.886 119.433 112.45 119.137 112.128 119.092C111.806 119.048 110.586 118.916 110.586 118.916V117.366C110.586 117.366 118.263 117.366 118.533 117.366C118.803 117.366 119.195 117.442 119.422 117.719C119.65 117.996 125.604 125.759 125.604 125.759C125.604 125.066 125.604 120.302 125.604 119.861C125.604 119.42 125.168 119.124 124.845 119.08C124.523 119.036 123.311 118.903 123.311 118.903" fill="#211E1E"/>
<path id="Vector_9" d="M143.158 117.366C140.954 117.366 131.384 117.366 131.384 117.366V118.916C131.384 118.916 132.604 119.048 132.927 119.092C133.249 119.137 133.685 119.433 133.685 119.874C133.685 120.315 133.685 125.374 133.685 126.067C133.685 126.761 133.142 127.006 132.895 127.038C132.649 127.069 131.376 127.195 131.376 127.195V128.708L143.158 128.708C146.972 128.708 150.191 126.943 150.191 122.986C150.191 119.029 146.563 117.366 143.158 117.366ZM142.012 126.557H138.101V119.55C138.101 119.55 140.579 119.55 142.029 119.55C143.478 119.55 144.928 120.038 144.928 122.995C144.928 125.952 143.782 126.557 142.012 126.557Z" fill="#211E1E"/>
<path id="Vector_10" d="M169.268 127.025C168.68 126.962 168.376 126.402 168.301 126.288C168.225 126.175 162.928 118.116 162.719 117.813C162.511 117.511 162.094 117.385 161.879 117.385C161.664 117.385 153.086 117.385 153.086 117.385V118.922C153.086 118.922 154.951 119.105 155.185 119.13C155.419 119.156 155.659 119.584 155.659 119.729C155.659 119.874 155.577 120.012 155.526 120.101C155.476 120.189 151.74 126.269 151.544 126.572C151.348 126.874 151.02 127.013 150.779 127.032C150.539 127.051 149.294 127.162 149.294 127.162V128.708H156.542V127.212L155.075 127.027C154.747 126.969 154.654 126.599 154.654 126.507C154.654 126.414 154.705 126.271 154.797 126.129C154.818 126.096 155.03 125.755 155.345 125.246H162.341C162.678 125.755 162.903 126.096 162.924 126.129C163.017 126.271 163.067 126.414 163.067 126.507C163.067 126.599 162.975 126.969 162.646 127.027L160.975 127.162V128.708H170.801V127.212C170.801 127.212 169.855 127.088 169.268 127.025ZM156.573 123.264C157.613 121.582 158.725 119.786 158.725 119.786C158.725 119.786 159.915 121.582 161.028 123.264H156.573Z" fill="#211E1E"/>
</g>
</g>
</svg>
