<svg width="242" height="176" viewBox="0 0 242 176" fill="none" xmlns="http://www.w3.org/2000/svg">
<g id="Client">
<g id="Brand">
<g id="Group 2437">
<path id="Path 4122" d="M94.8909 92.2943C95.7356 92.7222 96.6671 92.9525 97.6145 92.9678C98.7394 92.9678 99.3331 92.5034 99.3331 91.8001C99.3331 91.0967 98.8211 90.7437 97.5192 90.2793C95.7216 89.6547 94.5477 88.6499 94.5477 87.0938C94.5477 85.2526 96.0893 83.835 98.6332 83.835C99.5814 83.8152 100.523 84.0005 101.392 84.3781L100.847 86.347C100.142 86.0055 99.368 85.8299 98.5841 85.8337C97.5246 85.8337 97.0099 86.3144 97.0099 86.8738C97.0099 87.5636 97.62 87.865 99.0172 88.3946C100.924 89.098 101.828 90.0919 101.828 91.6127C101.828 93.4213 100.431 94.9747 97.4702 94.9747C96.4102 94.9819 95.3622 94.7517 94.4033 94.3012L94.8909 92.2943ZM105.935 84.0197V94.809H103.484V84.0197H105.935ZM108.536 84.1636C109.619 84.007 110.711 83.9326 111.805 83.9409C113.412 83.9409 114.528 84.1799 115.305 84.7882C115.636 85.0604 115.899 85.4063 116.072 85.7983C116.246 86.1902 116.324 86.6172 116.302 87.0449C116.293 87.629 116.107 88.1967 115.766 88.6719C115.425 89.1471 114.947 89.507 114.395 89.7036V89.7497C115.149 90.0539 115.566 90.7762 115.841 91.7675C116.176 92.9841 116.514 94.3935 116.724 94.809H114.218C114.041 94.4886 113.785 93.625 113.463 92.2943C113.142 90.9636 112.709 90.5834 111.715 90.5671H110.977V94.809H108.55L108.536 84.1636ZM110.963 88.8074H111.925C113.145 88.8074 113.867 88.1964 113.867 87.254C113.867 86.2601 113.194 85.7658 112.069 85.7495C111.699 85.7421 111.329 85.7685 110.963 85.8283V88.8074ZM120.804 84.0197V94.809H118.352V84.0197H120.804ZM132.537 89.3016C132.537 92.832 130.388 94.9855 127.223 94.9855C124.012 94.9855 122.136 92.5686 122.136 89.4944C122.136 86.2601 124.206 83.8431 127.4 83.8431C130.723 83.8431 132.537 86.3253 132.537 89.3016ZM124.72 89.4456C124.72 91.5584 125.714 93.0465 127.351 93.0465C128.988 93.0465 129.952 91.4796 129.952 89.3831C129.952 87.4468 129.021 85.7821 127.335 85.7821C125.649 85.7821 124.72 87.3491 124.72 89.4456ZM139.303 84.0142H141.754V92.7532H146.06V94.8036H139.303V84.0142ZM149.77 84.0142V94.8036H147.319V84.0197L149.77 84.0142ZM152.371 84.1582C153.417 83.9988 154.475 83.9243 155.533 83.9355C157.026 83.9355 157.941 84.0794 158.728 84.5411C159.12 84.7377 159.45 85.0397 159.679 85.413C159.909 85.7863 160.029 86.216 160.027 86.6539C160.027 87.6152 159.466 88.5114 158.246 88.9595V88.992C159.482 89.3288 160.398 90.2575 160.398 91.6507C160.399 92.0928 160.299 92.5294 160.103 92.9264C159.908 93.3234 159.624 93.6703 159.273 93.94C158.488 94.5646 157.17 94.9149 155.018 94.9149C154.133 94.9242 153.248 94.8706 152.371 94.7547V84.1582ZM154.795 88.2887H155.598C156.881 88.2887 157.57 87.7591 157.57 86.9607C157.57 86.1623 156.947 85.7115 155.838 85.7115C155.489 85.7056 155.14 85.7274 154.795 85.7767V88.2887ZM154.795 93.0764C155.11 93.1045 155.427 93.1145 155.743 93.1063C156.849 93.1063 157.829 92.6745 157.829 91.5529C157.829 90.4314 156.849 90.0322 155.628 90.0322H154.795V93.0764ZM163.944 92.0336L163.173 94.8036H160.632L163.938 84.0142H167.169L170.524 94.8036H167.877L167.041 92.0336H163.944ZM166.689 90.2087L166.014 87.9194C165.82 87.2812 165.63 86.4801 165.469 85.8392H165.436C165.276 86.4801 165.115 87.2948 164.938 87.9194L164.298 90.2087H166.689ZM171.665 94.8036V84.0197H174.522L176.769 87.9737C177.44 89.1661 178.029 90.4017 178.534 91.6724H178.583C178.428 90.1722 178.358 88.6644 178.374 87.1563V84.0197H180.623V94.809H178.063L175.751 90.6459C175.058 89.4123 174.431 88.1433 173.871 86.844H173.822C173.888 88.2697 173.918 89.7905 173.918 91.5502V94.809L171.665 94.8036ZM189.565 90.2413H185.583V92.8021H190.031V94.8036H183.126V84.0197H189.805V86.0211H185.583V88.2615H189.565V90.2413ZM191.586 92.2889C192.431 92.7167 193.362 92.9471 194.31 92.9624C195.435 92.9624 196.028 92.498 196.028 91.7946C196.028 91.0913 195.514 90.7382 194.214 90.2738C192.417 89.6492 191.243 88.6444 191.243 87.0884C191.243 85.2471 192.785 83.8296 195.328 83.8296C196.277 83.8102 197.218 83.9954 198.088 84.3727L197.543 86.3416C196.838 86.0001 196.063 85.8245 195.279 85.8283C194.22 85.8283 193.705 86.309 193.705 86.8684C193.705 87.5582 194.315 87.8596 195.712 88.3892C197.619 89.0925 198.521 90.0865 198.521 91.6072C198.521 93.4159 197.126 94.9692 194.163 94.9692C193.103 94.9775 192.054 94.7473 191.096 94.2958L191.586 92.2889ZM136.92 88.1285H134.365V90.6758H136.92V88.1285ZM104.862 80.8939L103.5 82.8628H105.461L107.42 80.8939H104.862ZM185.632 80.8939L184.025 82.8628H185.728L186.545 81.8716H186.577L187.378 82.8628H189.097L187.463 80.8939H185.632Z" fill="#211E1E"/>
<path id="Path 4123" d="M53.1368 105.365C53.0821 105.215 52.9881 105.083 52.8645 104.982C52.6629 104.819 52.4614 104.827 52.3361 104.982C52.2108 105.137 52.2353 105.27 52.3742 105.525C52.5485 105.813 52.5948 106.068 52.4205 106.275C52.3683 106.33 52.305 106.375 52.2347 106.406C52.1645 106.436 52.0886 106.452 52.012 106.452C51.9353 106.452 51.8595 106.436 51.7892 106.406C51.7189 106.375 51.6557 106.33 51.6034 106.275C51.4846 106.184 51.3909 106.064 51.3311 105.927L51.5135 105.813C51.5641 105.931 51.6415 106.036 51.7396 106.12C51.7695 106.152 51.8058 106.179 51.8464 106.196C51.887 106.214 51.9308 106.224 51.9752 106.224C52.0196 106.224 52.0634 106.214 52.104 106.196C52.1446 106.179 52.1809 106.152 52.2108 106.12C52.3279 105.979 52.2925 105.848 52.1509 105.577C51.9766 105.27 51.9466 105.033 52.1291 104.819C52.1857 104.758 52.2544 104.709 52.3308 104.676C52.4072 104.643 52.4897 104.625 52.573 104.625C52.6564 104.625 52.7389 104.643 52.8153 104.676C52.8917 104.709 52.9604 104.758 53.017 104.819C53.152 104.928 53.2561 105.07 53.3193 105.232L53.1368 105.365Z" fill="#211E1E"/>
<path id="Path 4124" d="M49.3652 102.636C49.8691 102.193 50.4056 102.264 50.727 102.636C50.805 102.731 50.8627 102.841 50.8967 102.96C50.9307 103.078 50.9402 103.202 50.9247 103.324C50.9091 103.446 50.8689 103.564 50.8063 103.67C50.7438 103.776 50.6603 103.869 50.5609 103.942C50.4729 104.033 50.3672 104.106 50.2502 104.156C50.1331 104.206 50.0072 104.232 49.88 104.232C49.7527 104.232 49.6268 104.206 49.5098 104.156C49.3927 104.106 49.287 104.033 49.199 103.942C49.1192 103.847 49.0599 103.737 49.0249 103.618C48.9899 103.5 48.9798 103.375 48.9954 103.252C49.011 103.13 49.0519 103.012 49.1156 102.905C49.1792 102.799 49.2642 102.707 49.3652 102.636V102.636ZM50.3866 103.746C50.6971 103.475 50.8305 103.059 50.5718 102.76C50.313 102.462 49.88 102.535 49.5477 102.826C49.2562 103.081 49.0847 103.496 49.3625 103.814C49.6403 104.132 50.0515 104.029 50.3866 103.746Z" fill="#211E1E"/>
<path id="Path 4125" d="M48.3458 99.4583C48.4861 99.5602 48.6031 99.6907 48.6889 99.8412C48.7638 99.9485 48.8146 100.071 48.838 100.199C48.8614 100.328 48.8568 100.46 48.8245 100.587C48.7922 100.713 48.733 100.832 48.6509 100.934C48.5687 101.035 48.4656 101.119 48.3485 101.177C48.2361 101.255 48.1086 101.308 47.9743 101.333C47.8399 101.358 47.7019 101.354 47.569 101.322C47.4361 101.291 47.3115 101.231 47.2032 101.148C47.0949 101.065 47.0053 100.96 46.9403 100.841C46.8539 100.708 46.7964 100.559 46.7715 100.403L46.9785 100.349C46.9985 100.483 47.0458 100.611 47.1174 100.726C47.1675 100.82 47.2375 100.901 47.3224 100.964C47.4073 101.028 47.505 101.072 47.6088 101.093C47.7127 101.115 47.82 101.114 47.9233 101.09C48.0266 101.066 48.1234 101.02 48.2068 100.955C48.3 100.91 48.3823 100.846 48.448 100.766C48.5137 100.686 48.5611 100.593 48.5871 100.494C48.613 100.394 48.6168 100.289 48.5982 100.188C48.5795 100.087 48.5389 99.9905 48.4792 99.9063C48.4097 99.7871 48.3171 99.6827 48.2068 99.5995L48.3458 99.4583Z" fill="#211E1E"/>
<path id="Path 4126" d="M45.7617 98.4453L47.5512 97.6659L47.6519 97.8967L45.8625 98.6761L45.7617 98.4453Z" fill="#211E1E"/>
<path id="Path 4127" d="M45.7507 95.2435L45.9604 95.9713L46.6359 95.7758L46.4017 94.9611L46.6032 94.9014L46.9083 95.9523L45.0344 96.4955L44.7402 95.4961L44.9445 95.4364L45.1678 96.2049L45.7589 96.0365L45.5492 95.3087L45.7507 95.2435Z" fill="#211E1E"/>
<path id="Path 4128" d="M44.3317 93.4539C44.2852 93.2809 44.2515 93.1049 44.2309 92.927C44.171 92.6464 44.2248 92.3535 44.3807 92.1123C44.4585 92.0088 44.5581 91.9236 44.6724 91.8626C44.7867 91.8016 44.9131 91.7664 45.0426 91.7593C45.1799 91.7359 45.3205 91.7408 45.4558 91.7734C45.5911 91.8061 45.7184 91.866 45.8297 91.9494C46.0573 92.1615 46.1931 92.4538 46.2083 92.7641C46.2276 92.9154 46.2376 93.0678 46.2383 93.2203L44.3317 93.4539ZM46.0177 93.0058C46.0194 92.9204 46.0139 92.835 46.0013 92.7505C46.0008 92.6383 45.9751 92.5276 45.926 92.4266C45.8768 92.3256 45.8056 92.2369 45.7175 92.167C45.6294 92.0972 45.5267 92.048 45.4169 92.023C45.3072 91.998 45.1932 91.9979 45.0834 92.0227C44.9783 92.0254 44.8752 92.0518 44.7817 92.0998C44.6883 92.1479 44.6069 92.2164 44.5438 92.3003C44.4806 92.3841 44.4374 92.4811 44.4171 92.584C44.3969 92.6869 44.4003 92.793 44.427 92.8944C44.438 92.9929 44.458 93.0902 44.487 93.185L46.0177 93.0058Z" fill="#211E1E"/>
<path id="Path 4129" d="M45.4345 89.6274L46.0364 89.861V90.119L44.1299 89.3586V89.0571L46.1127 88.495V88.7666L45.489 88.9431L45.4345 89.6274ZM45.2711 88.9784L44.6991 89.1413C44.5711 89.1766 44.454 89.2011 44.3396 89.2228C44.454 89.2554 44.5711 89.2934 44.6882 89.3369L45.233 89.5541L45.2711 88.9784Z" fill="#211E1E"/>
<path id="Path 4130" d="M44.4648 86.4149C44.4761 86.232 44.5025 86.0503 44.5438 85.8718C44.5856 85.5905 44.7326 85.3354 44.9551 85.1575C45.064 85.0863 45.1872 85.0395 45.316 85.0203C45.4448 85.0011 45.5763 85.0099 45.7014 85.0462C45.8379 85.0704 45.9681 85.1219 46.0841 85.1974C46.2002 85.273 46.2998 85.3712 46.3769 85.4861C46.5217 85.7642 46.552 86.0877 46.4613 86.3877C46.4277 86.5366 46.3858 86.6834 46.336 86.8277L44.4648 86.4149ZM46.2025 86.5507C46.233 86.4713 46.2567 86.3896 46.2734 86.3063C46.311 86.2002 46.3241 86.087 46.3116 85.9752C46.2992 85.8633 46.2616 85.7557 46.2017 85.6604C46.1417 85.5651 46.0609 85.4845 45.9653 85.4247C45.8697 85.3649 45.7618 85.3274 45.6496 85.315C45.203 85.2091 44.8571 85.3992 44.7399 85.9179C44.7181 86.0135 44.7044 86.1107 44.6991 86.2085L46.2025 86.5507Z" fill="#211E1E"/>
<path id="Path 4131" d="M46.7832 82.3794L46.4972 83.0773L47.1454 83.3489L47.4668 82.5695L47.6602 82.6482L47.2462 83.6612L45.4404 82.9252L45.8381 81.953L46.0342 82.0318L45.7319 82.7704L46.3038 83.004L46.5762 82.306L46.7832 82.3794Z" fill="#211E1E"/>
<path id="Path 4132" d="M47.9678 78.2678C48.0362 78.1311 48.1174 78.0011 48.2102 77.8795C48.3105 77.7173 48.4663 77.5968 48.6487 77.54C48.7124 77.5211 48.7797 77.5181 48.8448 77.5313C48.9099 77.5446 48.9707 77.5737 49.0218 77.6161C49.0965 77.6778 49.1504 77.7609 49.1762 77.8541C49.202 77.9474 49.1985 78.0463 49.1662 78.1375V78.1375C49.2524 78.0612 49.3625 78.017 49.4777 78.0125C49.593 78.0081 49.7062 78.0436 49.7981 78.113C49.8574 78.1558 49.9069 78.2106 49.9435 78.2737C49.9801 78.3369 50.003 78.4071 50.0105 78.4796C50.0027 78.7212 49.9057 78.9514 49.7382 79.126C49.6601 79.2299 49.5755 79.3288 49.4848 79.422L47.9678 78.2678ZM48.7549 78.5394L48.8938 78.3574C48.9304 78.3223 48.9595 78.2801 48.9794 78.2334C48.9993 78.1868 49.0096 78.1366 49.0096 78.0859C49.0096 78.0352 48.9993 77.985 48.9794 77.9383C48.9595 77.8917 48.9304 77.8495 48.8938 77.8143C48.7495 77.6894 48.5343 77.7627 48.3818 77.9637C48.3348 78.0224 48.2946 78.0861 48.2619 78.1538L48.7549 78.5394ZM49.5012 79.1015C49.5505 79.0515 49.596 78.998 49.6374 78.9413C49.7953 78.7349 49.8662 78.4851 49.6374 78.314C49.4086 78.1429 49.2016 78.2705 49.0354 78.4878L48.9074 78.6562L49.5012 79.1015Z" fill="#211E1E"/>
<path id="Path 4133" d="M51.4861 75.8102L50.9414 76.337L51.4344 76.8394L52.0391 76.2528L52.1861 76.4049L51.4126 77.168L50.0508 75.7695L50.808 75.0389L50.9523 75.1883L50.3776 75.7477L50.808 76.1877L51.3527 75.6608L51.4861 75.8102Z" fill="#211E1E"/>
<path id="Path 4134" d="M53.5075 75.3051L52.3936 73.7083L52.6169 73.5507L53.7064 74.0043C53.9266 74.0927 54.1404 74.1962 54.3464 74.3138C54.1775 74.1129 54.0359 73.9228 53.8643 73.6757L53.3959 73.0076L53.592 72.8718L54.7059 74.4686L54.4989 74.6126L53.4095 74.1536C53.1793 74.0606 52.9555 73.9527 52.7395 73.8305V73.8305C52.892 74.0233 53.0309 74.2106 53.2161 74.4768L53.6927 75.1584L53.5075 75.3051Z" fill="#211E1E"/>
<path id="Path 4135" d="M56.8164 72.3097L56.1328 72.6383L56.4351 73.2684L57.2004 72.9045L57.2903 73.0973L56.3152 73.5671L55.4736 71.8128L56.4215 71.3593L56.5141 71.5493L55.7705 71.8942L56.0429 72.4374L56.7265 72.1115L56.8164 72.3097Z" fill="#211E1E"/>
<path id="Path 4136" d="M58.3252 70.6179L59.3302 70.3137L59.3929 70.5147L58.6275 70.7482L58.8182 71.3674L59.5263 71.1529L59.5835 71.3511L58.8781 71.5656L59.1505 72.4075L58.9081 72.4835L58.3252 70.6179Z" fill="#211E1E"/>
<path id="Path 4137" d="M61.5311 69.8439L61.8552 71.7639L61.6046 71.8046L61.2832 69.8873L61.5311 69.8439Z" fill="#211E1E"/>
<path id="Path 4138" d="M65.0311 71.4488C64.8707 71.5228 64.6959 71.5609 64.5191 71.5601C64.3884 71.5716 64.2568 71.5549 64.1332 71.5113C64.0096 71.4676 63.8968 71.398 63.8025 71.3071C63.7083 71.2162 63.6347 71.1061 63.5868 70.9844C63.5389 70.8626 63.5178 70.7321 63.5249 70.6015C63.5135 70.4661 63.5306 70.3298 63.5754 70.2015C63.6201 70.0732 63.6914 69.9556 63.7846 69.8566C63.8779 69.7575 63.9909 69.679 64.1165 69.6263C64.2421 69.5736 64.3774 69.5478 64.5136 69.5505C64.6724 69.5408 64.8314 69.5658 64.9794 69.6238L64.9249 69.8302C64.7991 69.7784 64.6632 69.7552 64.5272 69.7623C64.4229 69.7599 64.3192 69.78 64.2234 69.8213C64.1275 69.8625 64.0417 69.9239 63.9719 70.0013C63.902 70.0786 63.8498 70.1702 63.8187 70.2695C63.7876 70.3689 63.7785 70.4738 63.7919 70.577C63.7839 70.6799 63.7985 70.7832 63.8348 70.8798C63.871 70.9764 63.9279 71.0639 64.0015 71.1363C64.0752 71.2087 64.1638 71.2642 64.2612 71.299C64.3586 71.3337 64.4624 71.3468 64.5654 71.3374C64.7064 71.3347 64.8455 71.3032 64.9739 71.2451L65.0311 71.4488Z" fill="#211E1E"/>
<path id="Path 4139" d="M67.856 70.8326L67.1069 70.7375L67.0171 71.4355L67.856 71.5414L67.8287 71.7505L66.7393 71.6147L66.9817 69.6812L68.0275 69.8142L68.0003 70.0233L67.2104 69.9228L67.1342 70.5312L67.8859 70.6262L67.856 70.8326Z" fill="#211E1E"/>
<path id="Path 4140" d="M69.5146 72.0897L70.0594 70.224L70.3317 70.3028L70.6504 71.4243C70.7187 71.6558 70.7705 71.8917 70.8057 72.1304V72.1304C70.8574 71.8751 70.9201 71.6443 71.0045 71.3537L71.236 70.5716L71.4648 70.6395L70.9201 72.5052L70.6749 72.4346L70.3617 71.3103C70.2932 71.0719 70.2386 70.8298 70.1983 70.5852V70.5852C70.1438 70.8242 70.0839 71.0496 69.9913 71.3619L69.7543 72.1576L69.5146 72.0897Z" fill="#211E1E"/>
<path id="Path 4141" d="M73.7118 71.7883L73.1671 71.5168L73.2624 71.3267L74.5643 71.9676L74.469 72.1577L73.9242 71.8861L73.1643 73.4449L72.9355 73.3335L73.7118 71.7883Z" fill="#211E1E"/>
<path id="Path 4142" d="M76.4457 74.3545L75.822 73.9281L75.4243 74.5066L76.1189 74.9818L75.999 75.1556L75.1084 74.5364L76.2142 72.9342L77.083 73.5289L76.9632 73.7L76.3014 73.2492L75.9391 73.7706L76.5628 74.1997L76.4457 74.3545Z" fill="#211E1E"/>
<path id="Path 4143" d="M80.237 76.3914C80.3716 76.5095 80.4973 76.6375 80.6129 76.7743C80.8148 76.9757 80.9309 77.2472 80.937 77.5319C80.929 77.6615 80.893 77.7879 80.8314 77.9022C80.7699 78.0166 80.6841 78.1164 80.5802 78.1946C80.4779 78.2886 80.3577 78.3611 80.2266 78.4078C80.0956 78.4545 79.9565 78.4743 79.8176 78.4661C79.5088 78.4128 79.2326 78.2425 79.0468 77.9909C78.9493 77.8747 78.8584 77.7532 78.7744 77.627L80.237 76.3914ZM79.0822 77.6949C79.1285 77.766 79.1795 77.834 79.2347 77.8986C79.297 77.9922 79.3797 78.0707 79.4767 78.1281C79.5736 78.1855 79.6823 78.2203 79.7946 78.2299C79.9069 78.2396 80.02 78.2238 80.1254 78.1839C80.2307 78.1439 80.3257 78.0807 80.4032 77.999C80.489 77.9389 80.5602 77.8603 80.6113 77.769C80.6625 77.6777 80.6923 77.576 80.6986 77.4716C80.7049 77.3672 80.6875 77.2627 80.6476 77.166C80.6078 77.0692 80.5466 76.9827 80.4685 76.9128C80.4058 76.8362 80.3345 76.7669 80.2561 76.7064L79.0822 77.6949Z" fill="#211E1E"/>
<path id="Path 4144" d="M82.0791 80.6631L81.6896 80.0167L81.1013 80.3725L81.5344 81.0976L81.3519 81.2062L80.7881 80.2666L82.4659 79.2672L83.0106 80.1715L82.8281 80.2802L82.4196 79.5931L81.8884 79.9054L82.2779 80.5572L82.0791 80.6631Z" fill="#211E1E"/>
<path id="Path 4145" d="M83.0887 84.4922C83.0464 84.6459 83.0464 84.8082 83.0887 84.962C83.1595 85.2064 83.3338 85.315 83.5217 85.2607C83.7097 85.2064 83.7696 85.0815 83.7941 84.799C83.8132 84.465 83.9167 84.2287 84.1809 84.1554C84.2564 84.1377 84.3347 84.1356 84.411 84.1494C84.4874 84.1632 84.56 84.1926 84.6244 84.2356C84.6889 84.2787 84.7437 84.3346 84.7854 84.3998C84.8272 84.4649 84.8551 84.538 84.8672 84.6144C84.9116 84.7568 84.9201 84.9079 84.8917 85.0543H84.6766C84.7042 84.9285 84.6995 84.7977 84.663 84.6741C84.5894 84.4188 84.4069 84.3645 84.2816 84.4025C84.1046 84.4569 84.0501 84.5926 84.0256 84.8805C83.9929 85.2308 83.8894 85.4236 83.6116 85.516C83.3338 85.6083 83.007 85.4562 82.8817 85.0163C82.8334 84.8492 82.8278 84.6728 82.8653 84.503L83.0887 84.4922Z" fill="#211E1E"/>
<path id="Path 4146" d="M84.4889 88.2208L84.3908 87.4713L83.6936 87.5609L83.7998 88.3974L83.5928 88.4245L83.4512 87.3383L85.385 87.0857L85.5212 88.1258L85.3114 88.153L85.2052 87.36L84.5978 87.4414L84.6959 88.191L84.4889 88.2208Z" fill="#211E1E"/>
<path id="Path 4147" d="M83.6882 90.1326L85.6383 90.1923V90.4639L84.6333 91.0586C84.4254 91.1819 84.2098 91.2917 83.9878 91.3872V91.3872C84.2545 91.3735 84.5218 91.3735 84.7885 91.3872L85.6056 91.4117V91.6479L83.6582 91.5882V91.3329L84.6632 90.7463C84.877 90.6196 85.098 90.5053 85.3251 90.4041H84.508L83.6745 90.377L83.6882 90.1326Z" fill="#211E1E"/>
<path id="Path 4148" d="M85.2896 94.0459L84.4916 93.883L84.2982 94.8036L85.0989 94.9692L85.0472 95.2164L83.1406 94.8226L83.1924 94.5755L84.0885 94.7601L84.2791 93.8368L83.383 93.6522L83.4348 93.405L85.3413 93.8015L85.2896 94.0459Z" fill="#211E1E"/>
<path id="Path 4149" d="M82.9122 98.4834C82.2912 98.2335 82.1114 97.7257 82.2994 97.264C82.3484 97.1505 82.4204 97.0483 82.5109 96.9637C82.6013 96.8791 82.7083 96.8141 82.8251 96.7725C82.9419 96.731 83.066 96.7139 83.1897 96.7223C83.3134 96.7307 83.434 96.7644 83.5441 96.8214C84.0915 97.0414 84.3612 97.56 84.1569 98.0407C83.9526 98.5214 83.4515 98.6979 82.9122 98.4834ZM83.4569 97.0739C83.0702 96.9191 82.6398 96.9898 82.4928 97.3455C82.3457 97.7013 82.599 98.0597 83.0103 98.2254C83.3698 98.372 83.8273 98.3367 83.9771 97.9538C84.1269 97.5709 83.8464 97.2287 83.4488 97.0712L83.4569 97.0739Z" fill="#211E1E"/>
<path id="Path 4150" d="M82.83 100.637C82.7695 100.787 82.6957 100.931 82.6094 101.069C82.5264 101.251 82.3763 101.395 82.19 101.471C82.1231 101.489 82.0529 101.493 81.9843 101.483C81.9156 101.472 81.8502 101.446 81.7923 101.408C81.6966 101.351 81.6222 101.264 81.5804 101.16C81.5386 101.057 81.5318 100.943 81.5608 100.835V100.835C81.4906 100.884 81.4089 100.913 81.3238 100.92C81.2388 100.927 81.1533 100.912 81.076 100.876C80.8995 100.809 80.7171 100.758 80.5312 100.724L80.6674 100.501C80.826 100.533 80.9817 100.578 81.1332 100.634C81.4055 100.726 81.5336 100.691 81.6616 100.501L81.7869 100.3L81.0569 99.8411L81.1877 99.6293L82.83 100.637ZM81.9421 100.384L81.8059 100.604C81.7709 100.646 81.7451 100.694 81.7302 100.746C81.7154 100.799 81.7119 100.853 81.7199 100.907C81.7278 100.961 81.7472 101.012 81.7766 101.058C81.8059 101.103 81.8447 101.142 81.8904 101.172C82.1028 101.302 82.2935 101.204 82.4351 100.982C82.4798 100.911 82.5172 100.837 82.5468 100.759L81.9421 100.384Z" fill="#211E1E"/>
<path id="Path 4151" d="M79.7774 102.706L79.4478 102.163L79.6167 101.97L80.6571 103.741L80.4583 103.972L78.5518 103.198L78.7261 102.994L79.328 103.238L79.7774 102.706ZM79.505 103.317L80.0498 103.54C80.1751 103.591 80.2813 103.646 80.3848 103.697C80.314 103.6 80.2431 103.499 80.1805 103.393L79.8782 102.88L79.505 103.317Z" fill="#211E1E"/>
<path id="Path 4152" d="M77.5604 104.553C77.4035 104.579 77.2562 104.646 77.1327 104.746C76.9366 104.911 76.9067 105.112 77.0347 105.262C77.1627 105.411 77.3071 105.416 77.5794 105.324C77.8926 105.205 78.1514 105.205 78.3311 105.416C78.3789 105.478 78.4132 105.549 78.4318 105.625C78.4505 105.7 78.4531 105.779 78.4395 105.856C78.4259 105.932 78.3964 106.005 78.3529 106.07C78.3094 106.135 78.2528 106.189 78.1868 106.231C78.0762 106.332 77.9409 106.402 77.7946 106.435L77.7156 106.234C77.8423 106.209 77.9604 106.152 78.0588 106.068C78.2631 105.897 78.2385 105.71 78.1541 105.609C78.0697 105.509 77.8817 105.476 77.6094 105.571C77.2771 105.685 77.0456 105.672 76.8604 105.452C76.6752 105.232 76.667 104.879 77.0211 104.583C77.1527 104.469 77.3126 104.392 77.4841 104.36L77.5604 104.553Z" fill="#211E1E"/>
<path id="Path 4153" d="M73.4146 84.1961L68.128 78.9956L66.1152 81.8253L73.4146 84.1961Z" fill="#211E1E"/>
<path id="Path 4154" d="M64.7666 76.2853L63.3557 75.1692L55.4844 78.3628L61.7597 80.4077L64.7666 76.2853Z" fill="#211E1E"/>
<path id="Path 4155" d="M73.4142 77.6107L65.6463 75.0824L64.7666 76.2854L68.1276 78.9957L73.4142 77.6107Z" fill="#211E1E"/>
<path id="Path 4156" d="M61.7598 80.4078L64.971 90.2983L66.1122 81.8254L61.7598 80.4078Z" fill="#211E1E"/>
<path id="Rectangle 2978" d="M64.6595 73.0562L63.4434 74.1843L64.5748 75.3969L65.791 74.2688L64.6595 73.0562Z" fill="#211E1E"/>
<path id="Path 4157" d="M61.7578 80.4078L55.1611 83.8133L57.2393 86.5941L61.7578 80.4078Z" fill="#211E1E"/>
<path id="Path 4158" d="M51.5408 86.1622L50.04 87.1534L50.6556 95.6073L54.5395 90.2846L51.5408 86.1622Z" fill="#211E1E"/>
<path id="Path 4159" d="M55.4768 78.3683L50.6641 84.9565L51.5411 86.1623L55.1608 83.8132L55.4768 78.3683Z" fill="#211E1E"/>
<path id="Path 4160" d="M57.2392 86.5941L54.54 90.2847L64.9689 90.2983L57.2392 86.5941Z" fill="#211E1E"/>
<path id="Rectangle 2979" d="M49.935 84.5652L48.4287 85.2643L49.1298 86.7661L50.6361 86.0671L49.935 84.5652Z" fill="#211E1E"/>
<path id="Path 4161" d="M54.54 90.2902L55.7493 97.598L59.0477 96.4819L54.54 90.2902Z" fill="#211E1E"/>
<path id="Path 4162" d="M56.8711 101.756L57.3532 103.486L65.6059 105.514L61.7328 100.183L56.8711 101.756Z" fill="#211E1E"/>
<path id="Path 4163" d="M50.6553 95.6155L55.4489 102.215L56.8707 101.756L55.7485 97.5979L50.6553 95.6155Z" fill="#211E1E"/>
<path id="Path 4164" d="M59.0469 96.4819L61.7324 100.183L64.9681 90.301L59.0469 96.4819Z" fill="#211E1E"/>
<path id="Path 4165" d="M54.8555 102.785L55.057 104.433L56.7048 104.23L56.5033 102.587L54.8555 102.785Z" fill="#211E1E"/>
<path id="Path 4166" d="M61.7383 100.186L69.0813 101.297L69.0377 97.8262L61.7383 100.186Z" fill="#211E1E"/>
<path id="Path 4167" d="M73.3955 101.522L75.1931 101.595L79.679 94.3962L73.401 96.4221L73.3955 101.522Z" fill="#211E1E"/>
<path id="Path 4168" d="M65.6172 105.517L73.3932 103.008L73.396 101.522L69.0817 101.297L65.6172 105.517Z" fill="#211E1E"/>
<path id="Path 4169" d="M69.0381 97.8261L73.4014 96.4221L64.9717 90.3037L69.0381 97.8261Z" fill="#211E1E"/>
<path id="Rectangle 2980" d="M74.0746 102.123L73.7539 103.748L75.3811 104.068L75.7017 102.443L74.0746 102.123Z" fill="#211E1E"/>
<path id="Path 4170" d="M73.4014 96.4194L76.7297 89.8013L73.4068 88.7666L73.4014 96.4194Z" fill="#211E1E"/>
<path id="Path 4171" d="M78.274 85.7794L78.9059 84.0956L73.4232 77.6188L73.415 84.1988L78.274 85.7794Z" fill="#211E1E"/>
<path id="Path 4172" d="M79.6847 94.3881L79.6956 86.2411L78.2738 85.7794L76.7295 89.8013L79.6847 94.3881Z" fill="#211E1E"/>
<path id="Path 4173" d="M73.415 84.1989L64.9717 90.301L73.4068 88.7666L73.415 84.1989Z" fill="#211E1E"/>
<path id="Rectangle 2981" d="M79.869 83.8713L79.0615 85.3191L80.5136 86.1242L81.3211 84.6763L79.869 83.8713Z" fill="#211E1E"/>
</g>
</g>
</g>
</svg>
