<svg width="242" height="176" viewBox="0 0 242 176" fill="none" xmlns="http://www.w3.org/2000/svg">
<g id="Client">
<g id="IDB_logo 1">
<g id="g10-8-5">
<g id="g12-0-9">
<path id="path14-5-7-2" d="M100.387 68.3505C92.5315 71.7662 79.5614 76.1505 83.0413 82.2678C87.3119 89.6596 112.039 86.3972 103.709 96.1844C98.1202 102.761 95.5374 105.973 94.3241 108.216C104.869 105.208 111.828 94.8085 110.141 83.6443C109.192 77.1702 105.501 71.7157 100.387 68.3505ZM69.8081 74.3665C66.7502 78.8012 65.3266 84.3581 66.1704 90.1188C67.9626 102.251 79.2457 110.662 91.3719 108.878C91.5299 108.828 91.6879 108.776 91.8464 108.776C97.0656 98.1727 85.8358 98.0716 89.3156 92.4129C92.5842 87.1621 69.2805 87.1621 69.8081 74.3665ZM116.982 74.5442V101.817H123.626V77.8575C123.626 76.0219 122.149 74.5442 120.304 74.5442H116.982ZM153.33 74.5921V101.814H166.352C172.89 101.814 176.686 99.0105 176.686 94.1678V94.1155C176.633 91.0062 175.263 88.9675 172.151 87.5405C174.155 86.1636 175.157 84.3287 175.157 81.9327V81.8305C175.157 79.8934 174.524 78.3643 173.206 77.0391C171.572 75.4076 169.095 74.5921 165.984 74.5921H153.33ZM126.212 74.611V101.833H136.914C140.974 101.833 144.718 100.456 147.354 97.9069C149.938 95.4099 151.413 91.994 151.413 88.2219V88.1201C151.467 80.2691 145.35 74.611 136.968 74.611H126.212ZM88.6009 79.8208C91.6513 79.7414 94.672 82.8129 91.4243 82.7266C87.6286 82.5739 86.0998 80.6874 86.9427 80.229C87.47 79.9582 88.036 79.8355 88.6009 79.8208ZM159.815 80.5562H165.14C166.67 80.5562 168.567 80.9644 168.567 82.85V82.9013C168.567 84.4814 167.302 85.2973 164.771 85.2973H159.815V80.5562ZM132.908 80.677H136.968C141.502 80.677 144.507 83.6848 144.507 88.2219V88.2726C144.507 92.7583 141.45 95.7666 136.968 95.7666H132.908V80.677ZM94.3679 82.1037C94.6032 82.1107 94.9333 82.1754 95.3781 82.3187C97.4347 82.9814 97.1188 83.9502 95.7477 83.848C94.5911 83.7192 93.0968 82.0661 94.3679 82.1037ZM98.2155 84.5596C98.2684 84.5582 98.3244 84.5591 98.3837 84.5622C99.3327 84.5622 100.704 85.7854 98.7002 85.3777C97.3657 85.0907 97.4213 84.58 98.2155 84.5596ZM159.815 90.9557H166.142C168.725 90.9557 170.043 91.7712 170.043 93.4027V93.4539C169.99 95.1354 168.778 95.9518 166.3 95.9518H159.815V90.9557Z" fill="#211E1E"/>
<path id="path20-5-4" d="M89.3686 92.361C85.8361 98.0204 97.1191 98.1225 91.899 108.726C91.7411 108.777 91.5832 108.777 91.4246 108.828C79.2458 110.611 67.9629 102.2 66.1707 90.0672C65.3268 84.3072 66.8035 78.7506 69.8082 74.3158C69.2806 87.1111 92.6373 87.1111 89.3686 92.361ZM94.3241 108.216C95.5375 105.973 98.1203 102.71 103.709 96.1845C112.092 86.3973 87.3122 89.6599 83.0416 82.2681C79.5617 76.1508 92.5844 71.7665 100.44 68.3508C105.555 71.716 109.245 77.1703 110.194 83.6954C111.882 94.7574 104.869 105.208 94.3241 108.216ZM86.9959 80.178C86.1522 80.6366 87.6289 82.574 91.4776 82.6763C95.2738 82.7782 90.37 78.3938 86.9959 80.178ZM95.4317 82.2681C92.5844 81.3504 94.4297 83.6444 95.8008 83.7976C97.1717 83.8992 97.435 82.9309 95.4317 82.2681ZM98.384 84.511C97.435 84.46 97.277 85.0211 98.7005 85.3269C100.704 85.7346 99.3331 84.511 98.384 84.511Z" fill="#211E1E"/>
</g>
</g>
</g>
</g>
</svg>
