<svg width="73" height="30" viewBox="0 0 73 30" fill="none" xmlns="http://www.w3.org/2000/svg">
<path d="M21.0347 5.91334L20.9432 8.48779C19.733 6.68354 17.8222 5.59808 15.1789 5.59808C10.5324 5.59808 6.97363 9.08533 6.97363 14.3875C6.97363 19.7498 10.5324 23.3389 15.1789 23.3389C17.7921 23.3389 19.6629 22.2845 20.8722 20.5413V26.4721H7.88814V30.0001H20.8713L25.2025 26.4721V5.91334H21.0347ZM15.3861 19.6198C12.5599 19.6198 10.6784 17.5624 10.6784 14.4195C10.6784 11.3474 12.5589 9.27933 15.3861 9.27933C18.1919 9.27933 20.0939 11.3474 20.0939 14.4496C20.0939 17.5614 18.1929 19.6198 15.3861 19.6198Z" fill="#211E1E"/>
<path d="M49.3092 5.57204C46.4747 5.57204 44.4798 6.7925 43.6845 8.5068C42.5518 6.69662 40.7188 5.57204 38.0656 5.57204C35.6297 5.57204 33.3173 6.72361 32.5383 8.50704V5.97939H27.9414V22.9848H32.5383V10.0089H39.0875V22.9848H43.6845V10.0089H50.2335V22.9848H54.836V10.8279C54.836 7.95617 52.542 5.57204 49.3092 5.57204Z" fill="#211E1E"/>
<path d="M0 5.91158V23.0131H4.33127V5.91158H0Z" fill="#211E1E"/>
<path d="M7.7639 0H3.43652V5.91231H7.7639V0Z" fill="#211E1E"/>
<path fill-rule="evenodd" clip-rule="evenodd" d="M59.1248 5.91655V10.0091H68.6689V11.5969L63.6706 12.4297C62.3066 12.652 61.1737 13.0299 60.2717 13.5634C59.3698 14.0969 58.6988 14.7526 58.2588 15.5307C57.8408 16.3087 57.6318 17.1867 57.6318 18.1648C57.6318 19.2096 57.8848 20.121 58.3908 20.899C58.8968 21.6548 59.6008 22.2549 60.5027 22.6995C61.4267 23.1219 62.4936 23.3331 63.7036 23.3331C64.7155 23.3331 65.6285 23.1886 66.4425 22.8996C67.2784 22.6106 68.0154 22.1994 68.6534 21.6659C68.6585 21.6617 68.6637 21.6575 68.6689 21.6533V23.0191H73.0001V5.91655H59.1248ZM63.8399 15.3985L68.3964 14.4111V15.4983C68.3964 16.4083 68.2041 17.2405 67.8193 17.9951C67.4345 18.7275 66.8877 19.3156 66.1789 19.7595C65.4904 20.2033 64.6803 20.4253 63.7488 20.4253C62.9995 20.4253 62.3818 20.2144 61.8958 19.7928C61.43 19.3489 61.1971 18.783 61.1971 18.095C61.1971 17.3848 61.4097 16.8077 61.835 16.3639C62.2603 15.8978 62.9286 15.576 63.8399 15.3985Z" fill="#211E1E"/>
</svg>
