<svg width="242" height="176" viewBox="0 0 242 176" fill="none" xmlns="http://www.w3.org/2000/svg">
<g id="Client">
<g id="Logotipo">
<path id="Vector" d="M150.008 90.8905L155.33 99.2503C155.478 99.4789 155.317 99.776 155.048 99.776H148.869C148.752 99.776 148.64 99.7165 148.582 99.6114L141.336 88.0978C141.269 87.9881 141.269 87.8555 141.332 87.7413C141.395 87.627 141.507 87.563 141.637 87.563H143.838C144.601 87.563 145.318 87.2568 145.865 86.7037C146.434 86.1278 146.744 85.3554 146.735 84.5326C146.721 82.9786 145.748 81.8542 144.417 81.8542H139.292V99.4377C139.292 99.6251 139.139 99.7805 138.951 99.7805H133.248C133.059 99.7805 132.907 99.6297 132.907 99.4377V77.6994C132.907 76.6344 133.727 75.766 134.732 75.766H144.583C146.928 75.766 148.945 76.607 150.591 78.2662C152.263 79.9528 153.075 81.941 153.075 84.3498C153.075 86.9231 152.003 89.309 150.205 90.7305L150.008 90.8905ZM165.356 87.9515L159.473 75.9671C159.419 75.8437 159.298 75.766 159.164 75.766H152.846C152.595 75.766 152.429 76.0311 152.541 76.2596L163.665 98.7658C163.984 99.3829 164.638 99.776 165.36 99.7805C166.073 99.7942 166.719 99.4103 167.064 98.7658L178.247 76.2642C178.359 76.0357 178.193 75.7706 177.942 75.7706H171.552C171.418 75.7706 171.297 75.8483 171.243 75.9717L165.356 87.9515ZM127.876 75.9214C127.136 75.6152 126.423 75.7569 125.755 76.3556L115.626 87.0831L105.556 76.415C104.87 75.8163 104.143 75.6197 103.404 75.9168C102.637 76.2231 102.157 76.9315 102.157 77.768V99.4423C102.157 99.6297 102.31 99.7805 102.498 99.7805H108.17C108.358 99.7805 108.511 99.6297 108.511 99.4423V88.8428L114.344 94.9036C115.035 95.612 116.227 95.6075 116.909 94.9082L122.747 88.8428V99.4423C122.747 99.6297 122.899 99.7805 123.087 99.7805H128.759C128.948 99.7805 129.1 99.6297 129.1 99.4423V77.7634C129.096 76.9361 128.629 76.2322 127.876 75.9214ZM91.5576 73.6863C91.5576 73.1973 91.2885 72.795 90.8357 72.6076C90.3873 72.4202 89.912 72.5162 89.5668 72.8636L74.6179 87.9195L80.0388 93.377C80.3123 93.6512 80.4603 94.0169 80.4603 94.4054V98.647C80.4603 99.6068 79.6846 100.388 78.7295 100.388H68.1299V102.308C68.1299 102.953 68.65 103.478 69.2912 103.478H90.4008C91.0419 103.478 91.5621 102.953 91.5621 102.308V73.6863H91.5576ZM68.1344 94.4465L68.1299 98.839H78.725C78.8326 98.839 78.9178 98.7521 78.9178 98.6424V94.4419L73.5284 89.0165L68.1344 94.4465ZM66.592 98.8435L66.5965 94.4099C66.5965 94.0214 66.7444 93.6603 67.0179 93.3861L72.4433 87.9241L62.1486 77.5532C61.893 77.2926 61.5701 77.1601 61.2339 77.1601C61.0635 77.1601 60.8886 77.1966 60.7138 77.2652C60.2026 77.4755 59.9022 77.9371 59.9022 78.4902V97.518C59.9022 98.2493 60.494 98.8435 61.2159 98.8435H66.592ZM91.4275 71.1816C92.4543 71.6067 93.0955 72.5711 93.0955 73.6909V102.313C93.0955 103.812 91.8849 105.032 90.3963 105.032H69.2867C67.7981 105.032 66.5875 103.812 66.5875 102.313V100.393H61.2159C59.6466 100.388 58.3643 99.0995 58.3643 97.518V78.4902C58.3643 77.3063 59.0413 76.2871 60.1264 75.8346C61.2114 75.3821 62.4041 75.6197 63.2336 76.4562L73.5284 86.8271L88.4862 71.7712C89.2709 70.9805 90.4008 70.7519 91.4275 71.1816Z" fill="#211E1E"/>
</g>
</g>
</svg>
