<svg width="243" height="176" viewBox="0 0 243 176" fill="none" xmlns="http://www.w3.org/2000/svg">
<g id="Client">
<g id="logo 1">
<path id="Vector" d="M95.4692 90.1174V92.3281C94.9225 91.5748 94.4852 90.9774 94.1572 90.536L85.8287 79.4125H83.5078V96.6005H86.0675V83.6849C86.615 84.4382 87.0524 85.0356 87.3795 85.477L95.708 96.6005H98.0197V79.4125H95.4692V90.1174Z" fill="#211E1E"/>
<path id="Vector_2" d="M108.664 84.68C107.758 84.1399 106.716 83.8633 105.657 83.8817C104.818 83.8712 103.986 84.0254 103.208 84.3353C102.478 84.6342 101.821 85.0835 101.282 85.6531C100.724 86.2431 100.296 86.9413 100.026 87.7032C99.7256 88.5596 99.5782 89.4611 99.5906 90.3674C99.5906 91.6632 99.856 92.7967 100.387 93.7677C100.889 94.7133 101.646 95.5035 102.574 96.051C103.546 96.6117 104.656 96.8964 105.782 96.8738C106.501 96.8751 107.217 96.7716 107.906 96.5667C108.598 96.3605 109.241 96.018 109.795 95.5598C110.399 95.0554 110.901 94.4436 111.275 93.756L109.386 92.6014C109.151 93.0689 108.831 93.4894 108.441 93.8416C108.089 94.1534 107.673 94.3879 107.222 94.5296C106.755 94.6717 106.268 94.7421 105.779 94.7383C105.108 94.7481 104.447 94.577 103.866 94.2433C103.286 93.8969 102.823 93.3876 102.537 92.7803C102.263 92.1976 102.106 91.5678 102.074 90.9259H111.476C111.492 90.8117 111.499 90.6965 111.499 90.5812V90.2624C111.499 88.9856 111.247 87.8686 110.741 86.9114C110.271 85.9923 109.552 85.2199 108.664 84.68ZM103.01 87.0617C103.306 86.6844 103.695 86.3886 104.141 86.2026C104.613 86.0092 105.12 85.9127 105.631 85.9188C106.095 85.907 106.556 85.9979 106.98 86.1849C107.404 86.3719 107.78 86.6503 108.08 86.9995C108.536 87.5179 108.829 88.2301 108.959 89.1364H102.146C102.183 88.9082 102.235 88.6827 102.301 88.4612C102.445 87.9543 102.685 87.4793 103.01 87.0617Z" fill="#211E1E"/>
<path id="Vector_3" d="M122.248 84.6917C121.238 84.1391 120.098 83.8598 118.944 83.8818C118.076 83.8737 117.214 84.0321 116.407 84.3483C115.642 84.6501 114.948 85.106 114.37 85.6869C113.784 86.2759 113.326 86.9777 113.026 87.7486C112.704 88.5833 112.544 89.4704 112.554 90.3636C112.554 91.6405 112.832 92.77 113.387 93.7522C113.92 94.7116 114.711 95.5062 115.674 96.0472C116.561 96.5216 117.543 96.7983 118.55 96.8579C119.557 96.9174 120.565 96.7583 121.503 96.3919C122.267 96.0832 122.961 95.6283 123.546 95.0533C124.133 94.4698 124.59 93.7715 124.888 93.0033C125.212 92.1605 125.372 91.265 125.36 90.3636C125.36 89.0678 125.083 87.9344 124.527 86.9633C123.995 86.0124 123.206 85.226 122.248 84.6917ZM122.573 92.1804C122.395 92.6852 122.116 93.1491 121.751 93.5436C121.404 93.9113 120.98 94.2001 120.509 94.3898C120.012 94.5899 119.48 94.6903 118.944 94.6853C118.249 94.6936 117.565 94.5144 116.966 94.1669C116.368 93.8126 115.886 93.2969 115.574 92.6806C115.235 92.0335 115.065 91.2603 115.065 90.361C115.054 89.7445 115.151 89.1307 115.351 88.5469C115.527 88.048 115.801 87.5888 116.16 87.1966C116.502 86.8229 116.927 86.5328 117.402 86.3491C117.893 86.159 118.416 86.0631 118.944 86.0666C119.654 86.0543 120.354 86.2335 120.969 86.585C121.566 86.9351 122.05 87.4451 122.365 88.0557C122.705 88.6933 122.876 89.4643 122.876 90.3636C122.883 90.9821 122.781 91.597 122.573 92.1804Z" fill="#211E1E"/>
<path id="Vector_4" d="M135.484 84.68C134.578 84.1399 133.536 83.8633 132.477 83.8817C131.638 83.8713 130.806 84.0255 130.028 84.3353C129.299 84.6344 128.642 85.0837 128.103 85.6531C127.545 86.2428 127.117 86.941 126.847 87.7032C126.547 88.5596 126.399 89.4611 126.412 90.3674C126.412 91.6632 126.677 92.7967 127.208 93.7677C127.71 94.7133 128.467 95.5035 129.395 96.051C130.366 96.6095 131.474 96.8929 132.598 96.8699C133.318 96.8712 134.035 96.7677 134.725 96.5628C135.416 96.3557 136.059 96.0133 136.614 95.5559C137.216 95.0511 137.718 94.4393 138.092 93.7521L136.203 92.5975C135.968 93.0648 135.648 93.4852 135.259 93.8377C134.906 94.1492 134.491 94.3836 134.04 94.5258C133.572 94.6677 133.086 94.738 132.597 94.7344C131.925 94.7452 131.264 94.5754 130.682 94.2433C130.104 93.8961 129.643 93.3868 129.359 92.7803C129.084 92.1978 128.926 91.5679 128.895 90.9259H138.295C138.311 90.8118 138.32 90.6966 138.319 90.5812V90.2624C138.319 88.9856 138.067 87.8686 137.561 86.9114C137.091 85.9923 136.372 85.2199 135.484 84.68ZM129.83 87.0617C130.126 86.6847 130.515 86.3889 130.959 86.2026C131.432 86.0092 131.94 85.9127 132.452 85.9188C132.916 85.9073 133.377 85.9984 133.8 86.1853C134.224 86.3723 134.6 86.6505 134.9 86.9995C135.357 87.5179 135.65 88.2301 135.778 89.1364H128.968C129.004 88.9082 129.056 88.6827 129.122 88.4612C129.266 87.9543 129.506 87.4793 129.831 87.0617H129.83Z" fill="#211E1E"/>
<path id="Vector_5" d="M148.463 84.4714C147.726 84.0678 146.894 83.8644 146.052 83.8818C145.196 83.8797 144.356 84.1135 143.627 84.5569C143.069 84.9013 142.618 85.3909 142.323 85.972V84.1267H139.887V96.6004H142.323V89.2142C142.323 88.2164 142.617 87.435 143.206 86.87C143.795 86.305 144.553 86.0225 145.48 86.0225C146.309 86.0225 146.98 86.3007 147.494 86.857C148.007 87.4134 148.264 88.1667 148.264 89.117V96.6056H150.725V88.7178C150.746 87.8254 150.537 86.9423 150.116 86.1521C149.735 85.4501 149.163 84.8678 148.463 84.4714Z" fill="#211E1E"/>
<path id="Vector_6" d="M161.365 84.6801C160.458 84.1404 159.415 83.8638 158.356 83.8818C157.518 83.8716 156.685 84.0257 155.907 84.3354C155.178 84.6347 154.523 85.0839 153.984 85.6532C153.426 86.2433 152.999 86.9414 152.729 87.7032C152.428 88.5595 152.281 89.4611 152.294 90.3675C152.294 91.6633 152.559 92.7968 153.089 93.7678C153.591 94.7131 154.348 95.5032 155.276 96.0511C156.248 96.6116 157.358 96.8964 158.484 96.8739C159.204 96.8751 159.92 96.7716 160.609 96.5668C161.301 96.3603 161.944 96.0178 162.498 95.5599C163.101 95.0551 163.603 94.4433 163.977 93.7561L162.088 92.6015C161.854 93.0693 161.533 93.4898 161.143 93.8416C160.791 94.1534 160.376 94.3879 159.926 94.5297C159.458 94.6716 158.971 94.7419 158.482 94.7384C157.811 94.7495 157.149 94.5797 156.568 94.2472C155.986 93.9003 155.523 93.3894 155.237 92.7804C154.962 92.1986 154.803 91.5698 154.771 90.9286H164.171C164.187 90.8144 164.196 90.6992 164.196 90.5839V90.2651C164.196 88.9883 163.943 87.8713 163.438 86.9141C162.968 85.9951 162.251 85.222 161.365 84.6801ZM155.709 87.0618C156.005 86.6845 156.395 86.3886 156.84 86.2027C157.312 86.0092 157.82 85.9127 158.332 85.9189C158.795 85.9072 159.256 85.9982 159.68 86.1852C160.103 86.3722 160.479 86.6505 160.78 86.9996C161.236 87.5179 161.529 88.2302 161.659 89.1364H154.846C154.882 88.9083 154.934 88.6828 155 88.4613C155.144 87.9544 155.384 87.4794 155.709 87.0618Z" fill="#211E1E"/>
<path id="Vector_7" d="M169.63 84.4467C169.042 84.8225 168.566 85.3953 168.201 86.165V84.1267H165.765V96.6004H168.201V89.9463C168.201 88.8828 168.475 88.0315 169.022 87.3922C169.274 87.0864 169.592 86.8412 169.954 86.6753C170.316 86.5093 170.711 86.427 171.11 86.4346H172.352V83.8817H171.631C170.922 83.8713 170.226 84.0678 169.63 84.4467Z" fill="#211E1E"/>
<path id="Vector_8" d="M182.046 86.2221C181.96 86.0731 181.869 85.9267 181.772 85.7841C181.38 85.2089 180.857 84.7337 180.243 84.3976C179.621 84.052 178.863 83.8792 177.968 83.8792C177.202 83.8727 176.442 84.0231 175.738 84.3211C175.061 84.6078 174.451 85.0301 173.948 85.5612C173.435 86.1055 173.034 86.7432 172.767 87.4389C172.481 88.1935 172.34 88.9942 172.351 89.7999C172.334 90.8571 172.591 91.9012 173.098 92.8322C173.57 93.6984 174.264 94.4268 175.111 94.9444C175.97 95.4655 176.961 95.7351 177.969 95.7219C178.864 95.7219 179.623 95.5457 180.244 95.1932C180.854 94.8523 181.377 94.378 181.773 93.8067C181.87 93.6667 181.962 93.5229 182.047 93.3752V95.1323C182.047 95.9513 181.873 96.6329 181.522 97.1823C181.187 97.7183 180.704 98.1486 180.13 98.4225C179.533 98.7046 178.878 98.8474 178.216 98.8397C177.447 98.8506 176.689 98.651 176.028 98.2631C175.366 97.8628 174.812 97.3112 174.413 96.6549L172.697 98.0052C173.067 98.6601 173.566 99.2359 174.163 99.6989C174.732 100.134 175.377 100.463 176.066 100.669C177.847 101.182 179.756 101.047 181.445 100.288C182.375 99.8435 183.152 99.1394 183.682 98.2631C184.228 97.3707 184.502 96.286 184.502 95.0092V84.1267H182.042L182.046 86.2221ZM181.623 91.7268C181.324 92.2741 180.882 92.732 180.343 93.0525C179.77 93.3661 179.126 93.5306 178.472 93.5306C177.817 93.5306 177.173 93.3661 176.601 93.0525C176.056 92.7351 175.609 92.2767 175.309 91.7268C174.987 91.1346 174.824 90.4707 174.836 89.7986C174.823 89.119 174.985 88.4471 175.309 87.8471C175.609 87.297 176.056 86.8385 176.601 86.5215C177.173 86.207 177.817 86.042 178.472 86.042C179.127 86.042 179.771 86.207 180.343 86.5215C180.883 86.8416 181.325 87.2996 181.623 87.8471C181.946 88.4473 182.109 89.119 182.096 89.7986C182.107 90.4706 181.944 91.1343 181.623 91.7268Z" fill="#211E1E"/>
<path id="Vector_9" d="M189.204 79.2776C188.875 78.9924 188.449 78.8394 188.012 78.8487C187.577 78.8378 187.155 78.9912 186.831 79.2776C186.669 79.4251 186.541 79.606 186.457 79.8075C186.373 80.009 186.335 80.2262 186.345 80.4439C186.337 80.6577 186.376 80.8707 186.46 81.068C186.544 81.2652 186.67 81.4419 186.831 81.5855C187.155 81.8723 187.577 82.0262 188.012 82.0157C188.45 82.0246 188.875 81.8711 189.204 81.5855C189.368 81.4439 189.498 81.2679 189.584 81.0704C189.67 80.8728 189.71 80.6587 189.701 80.4439C189.712 80.2251 189.673 80.0069 189.587 79.8051C189.501 79.6033 189.37 79.4231 189.204 79.2776Z" fill="#211E1E"/>
<path id="Vector_10" d="M189.229 84.1267H186.793V96.5992H189.229V84.1267Z" fill="#211E1E"/>
<path id="Vector_11" d="M201.718 86.5823C201.423 85.9837 200.994 85.4591 200.464 85.0481C199.931 84.6414 199.323 84.3412 198.674 84.1643C197.983 83.9735 197.267 83.8784 196.549 83.8818C195.473 83.8645 194.411 84.1226 193.466 84.6308C192.546 85.1385 191.827 85.9393 191.427 86.9024L193.344 87.9857C193.576 87.3998 193.989 86.9011 194.525 86.5603C195.063 86.2147 195.722 86.042 196.501 86.042C197.058 86.0346 197.612 86.1349 198.13 86.3374C198.614 86.5289 199.026 86.8628 199.311 87.2937C199.608 87.7369 199.757 88.3183 199.758 89.0379V90.4297C199.672 90.3385 199.58 90.2519 199.484 90.1705C198.705 89.4993 197.578 89.1636 196.104 89.1636C195.222 89.1521 194.345 89.3019 193.518 89.6055C192.793 89.8623 192.156 90.3175 191.682 90.9182C191.247 91.5312 191.012 92.2611 191.01 93.0096C191.007 93.7582 191.237 94.4895 191.668 95.1051C192.133 95.6966 192.752 96.151 193.459 96.4191C194.263 96.7304 195.119 96.8844 195.982 96.8726C197.474 96.8726 198.626 96.5249 199.437 95.8294C199.602 95.6884 199.752 95.5317 199.885 95.3617V96.6031H202.197V88.8164C202.216 88.045 202.052 87.2799 201.718 86.5823ZM198.934 94.487C198.339 94.8325 197.595 95.0053 196.704 95.0053C195.792 95.0053 195.033 94.8325 194.429 94.487C193.825 94.1414 193.522 93.6421 193.522 92.989C193.509 92.6744 193.588 92.3628 193.748 92.0909C193.909 91.819 194.145 91.5982 194.429 91.4547C195.033 91.1186 195.792 90.951 196.704 90.9519C197.599 90.9519 198.342 91.1247 198.934 91.4702C199.213 91.6157 199.445 91.8355 199.603 92.1047C199.762 92.3739 199.84 92.6816 199.83 92.9929C199.83 93.6468 199.532 94.1453 198.934 94.4883V94.487Z" fill="#211E1E"/>
<path id="Vector_12" d="M60.585 90.4919C60.582 92.4697 61.371 94.3683 62.7799 95.7738C65.4984 98.4587 69.189 98.4536 71.5414 97.1914C74.4212 95.6481 80.8998 91.0193 74.1732 71.8188C74.1732 80.882 60.585 81.8033 60.585 90.4919Z" fill="#211E1E"/>
<path id="Vector_13" d="M66.7721 79.7533C66.326 77.378 65.611 74.9457 64.5417 71.8188C64.5417 80.882 50.9522 81.8033 50.9522 90.4919C50.9491 92.4692 51.737 94.3676 53.1445 95.7738C55.8629 98.4587 59.5824 98.451 61.9059 97.1914C56.5032 91.5014 58.4056 84.9146 66.7721 79.7533Z" fill="#211E1E"/>
<path id="Vector_14" d="M57.1393 79.7533C56.6932 77.378 55.9769 74.9457 54.9089 71.8188C54.9089 80.882 41.3193 81.8033 41.3193 90.4919C41.3193 94.9483 44.9745 96.9102 44.9745 96.9102C44.4066 99.2929 44.2878 101.759 44.6242 104.184L46.3679 103.897C45.5151 100.969 46.0386 97.7797 46.0923 97.4674C48.3227 98.3499 50.6226 98.0881 52.2731 97.194C46.8625 91.5014 48.7727 84.9159 57.1393 79.7533Z" fill="#211E1E"/>
</g>
</g>
</svg>
